<?xml version="1.0" ?>
<!-- Uploaded to: SVG Repo, www.svgrepo.com, Generator: SVG Repo Mixer Tools -->
<svg width="800px" height="800px" viewBox="0 0 200 200" id="Layer_1" version="1.1" xml:space="preserve" xmlns="http://www.w3.org/2000/svg" xmlns:xlink="http://www.w3.org/1999/xlink">
<style type="text/css">
	.st0{fill:#593522;}
	.st1{fill:none;}
	.st2{fill:#84561A;}
</style>
<g>
<path class="st2" d="M137.7,101.8c3.1-0.2,6.6-0.4,10.2-0.5c0,0,0,0,0,0c1.8-2.2,0.7-8.7,0.5-11.5c-0.1-3.8-0.4-7.6-0.8-11.4   c-0.4-3.7-0.6-7.5-1.7-11c-0.6-2-1.6-3.5-2.6-5.2C139.9,60,137,59,132.7,60c-2.6,0.6-5.1,1.7-7.6,2.6c-4.2,1.5-8.5,3-13,2.9   c-5-0.2-10.1-1.9-14.9-3.1c-1.9-0.5-3.8-0.9-5.6-1.4c-0.1,0.1-0.2,0.1-0.3,0.1c-7.3,0.3-7.9,11.1-7.7,16.5c0,0.6-0.9,0.7-1,0.1   c-0.8-4.6-0.2-9.3,1.7-13.5c0.7-1.5,1.9-3.3,3.4-4.3c-2.4-0.7-4.8-1.4-7.1-2.2c-7-0.2-7.7,7.6-8.8,13c-0.9,4.4-1.9,8.7-3.2,13   c-1.2,4-2.7,8-4.8,11.7c-0.6,1.1-1.4,2.2-2.2,3.4c7-2.5,15.4-1.2,22.2,0.9c0.5,0.1,0.4,0.9-0.1,0.9c-8.6-0.9-15.8-2.3-24,1.1   c-1.6,2.5-2.7,5.1-2,8.1c0.1,0.6-0.7,0.9-1,0.4c-0.8-1.6-0.9-3.1-0.6-4.5c-10.2-1.6-19.5-5.8-30.1-2.9c-2.4,0.6-4.9,1.5-6.7,3.3   c-4.3,4.3-1.4,9,2.5,11.9c3.5,2.7,7.4,4.4,11.7,4.9c4.2-0.6,8.5-0.4,12.8-0.8c4.8-0.4,9.6-1.1,14.3-2.1c8.9-1.7,17.6-4.2,26.2-6.7   C103.6,108.2,120,102.8,137.7,101.8z"/>
<path class="st2" d="M164.2,104.9c-14.4-2.7-31.3-1.5-45.5,1.7c-2.8,0.6-5.7,1.4-8.5,2.1c9.5,0.3,48.5,6.9,42.1,17.2   c0.2,10.3-15.1,12.5-24,9.9c-1.8,0.1-3.6,0.1-5.4-0.1c14.7,5,32.2,11,46,3.4c0.2-0.1,0.4-0.1,0.6,0c5.9-4.8,14.3-13.2,14.2-21.1   C183.4,109.1,171.3,106.2,164.2,104.9z"/>
<path class="st2" d="M139.6,134.8c5.4-0.8,9.3-3.8,10.9-8.5c0,0,0,0,0,0c0.2-5.9-4.6-7.3-9.2-9.1c-3.5-1.3-7.1-2.5-10.7-3.4   c-7.2-2-14.6-2.7-21.8-4.5c0,0-0.1,0-0.1-0.1c-9.8,2.7-19.5,5.9-29.3,8.7c7.2,1.7,14.1,5.2,20.8,8.1c5,2.2,10.1,4.4,15.4,5.9   c4.3,1.3,8.5,1.6,12.9,2.3C132.2,134.5,135.8,135.4,139.6,134.8z"/>
<path d="M150.2,101.3c0.9-2,0.5-4.6,0.5-6.8c0-5.4-0.3-10.7-0.9-16.1c-0.4-3.8-0.8-7.8-2-11.5c-0.5-1.4-1.1-2.9-1.9-4.1   c-0.4-0.6-0.9-1.2-1.5-1.6c0.5,0.3,0.2,0.1-0.3-0.3c-3.2-8.5-18.5-0.6-23.6,1c-7.2,2.2-13.6,0.6-20.7-1.1c-6-1.4-12.1-2.9-18.2-3.8   c0-0.3-0.1-0.5-0.4-0.7c-10.3-4.7-11.7,15.9-13,21.2c-1.7,6.9-3.9,13.7-7.7,19.8c-0.6,0.9-1.2,1.9-1.9,2.8c-0.1,0-0.2,0.1-0.2,0.1   c-0.4,0.2-0.5,0.6-0.4,0.9c-0.6,0.9-1.1,1.9-1.5,2.9c-10.4-4.5-31.8-8.7-39.6,1.7c-7,9.3,6.6,17.6,15.9,18.5   c0.1,0.1,0.2,0.1,0.3,0.1c6.4,1.4,13.5,0.2,19.9-0.7c7.4-1,14.6-2.7,21.8-4.6c0.7-0.2,1.4-0.4,2.2-0.6c9.1,3.3,17.8,7.1,26.8,11   c3.9,1.7,8.3,3.6,12.8,4.9c0,0.1,0.1,0.1,0.2,0.2c9.6,4.9,20.6,7.6,31.2,9.2c7.2,1.1,15.5,1.5,21.3-3.4c0.1,0.1,0.3,0.1,0.4,0   c8.1-5.9,22.2-20.6,11.7-30.5C173.7,102.6,161.4,101.2,150.2,101.3z M60.5,119.9c-4.7,0.9-9.5,1.7-14.3,2.1   c-4.2,0.4-8.6,0.1-12.8,0.8c-4.3-0.5-8.1-2.2-11.7-4.9c-3.9-2.9-6.8-7.7-2.5-11.9c1.8-1.8,4.3-2.7,6.7-3.3   c10.6-2.9,19.9,1.3,30.1,2.9c-0.3,1.5-0.2,3,0.6,4.5c0.3,0.5,1.1,0.2,1-0.4c-0.7-2.9,0.4-5.6,2-8.1c8.2-3.4,15.4-2,24-1.1   c0.5,0.1,0.6-0.7,0.1-0.9c-6.8-2.1-15.3-3.3-22.2-0.9c0.8-1.1,1.6-2.3,2.2-3.4c2.1-3.7,3.6-7.7,4.8-11.7c1.3-4.3,2.3-8.6,3.2-13   c1.1-5.3,1.7-13.1,8.8-13c2.3,0.8,4.7,1.6,7.1,2.2c-1.5,1-2.7,2.8-3.4,4.3c-1.9,4.2-2.5,8.9-1.7,13.5c0.1,0.6,1,0.4,1-0.1   c-0.1-5.4,0.5-16.2,7.7-16.5c0.1,0,0.2,0,0.3-0.1c1.9,0.5,3.8,0.9,5.6,1.4c4.8,1.2,9.9,3,14.9,3.1c4.5,0.1,8.8-1.3,13-2.9   c2.5-0.9,5-2,7.6-2.6c4.3-1.1,7.1,0,10.6,2.1c1,1.7,2,3.2,2.6,5.2c1,3.6,1.3,7.4,1.7,11c0.4,3.8,0.6,7.6,0.8,11.4   c0.1,2.8,1.3,9.3-0.5,11.5c0,0,0,0,0,0c-3.6,0.1-7,0.3-10.2,0.5c-17.7,1-34.1,6.4-51,11.4C78.1,115.7,69.3,118.2,60.5,119.9z    M115.6,131.9c-5.3-1.6-10.4-3.7-15.4-5.9c-6.6-2.9-13.6-6.4-20.8-8.1c9.8-2.8,19.5-6,29.3-8.7c0,0,0,0,0.1,0.1   c7.2,1.8,14.6,2.6,21.8,4.5c3.6,1,7.2,2.1,10.7,3.4c4.6,1.7,9.5,3.1,9.2,9.1c0,0,0,0,0,0c-1.6,4.8-5.5,7.7-10.9,8.5   c-3.8,0.6-7.5-0.3-11.2-0.6C124.1,133.5,119.8,133.2,115.6,131.9z M169.5,139.1c-0.2-0.1-0.4-0.1-0.6,0c-13.8,7.7-31.3,1.6-46-3.4   c1.8,0.2,3.6,0.3,5.4,0.1c8.9,2.6,24.2,0.4,24-9.9c6.5-10.4-32.6-16.9-42.1-17.2c2.8-0.8,5.6-1.5,8.5-2.1   c14.2-3.2,31.1-4.4,45.5-1.7c7,1.3,19.2,4.2,19.4,13.1C183.8,125.9,175.4,134.3,169.5,139.1z"/>
</g>
</svg>