<?xml version="1.0" encoding="utf-8"?>
<!-- Generator: Adobe Illustrator 28.7.10, SVG Export Plug-In . SVG Version: 9.03 Build 57640)  -->
<svg version="1.0" id="Capa_1" xmlns="http://www.w3.org/2000/svg" xmlns:xlink="http://www.w3.org/1999/xlink" x="0px" y="0px"
	 viewBox="0 0 320 320" style="enable-background:new 0 0 320 320;" xml:space="preserve">
<style type="text/css">
	.st0{opacity:0.75;fill:#FFFFFF;stroke:#FFA300;stroke-width:5.6889;stroke-miterlimit:5.6889;enable-background:new    ;}
	.st1{fill:#8A451F;}
	.st2{fill:#B26C26;}
	.st3{fill:#DF952F;}
	.st4{fill:#6C360D;}
	.st5{fill:#573B1C;}
	.st6{fill:#B65F27;}
	.st7{fill:#E7AE31;}
	.st8{fill:#EED045;}
	.st9{fill:#F5E262;}
	.st10{fill:#F8F083;}
	.st11{fill:#DA8F30;}
	.st12{fill:#4968AC;}
	.st13{fill:#79AADC;}
	.st14{fill:#AAD5E1;}
	.st15{fill:#486FB2;}
	.st16{fill:#323484;}
	.st17{fill:#DF963B;}
	.st18{fill:#EEC469;}
	.st19{fill:#BD422C;}
	.st20{fill:#D56E2E;}
	.st21{fill:#E5A850;}
	.st22{fill:#99292A;}
	.st23{fill:#495BA3;}
	.st24{fill:#BADCE7;}
	.st25{fill:#8ECBE9;}
	.st26{fill:#87B4E1;}
	.st27{fill:#D26583;}
	.st28{fill:#CC3857;}
	.st29{fill:#D8808F;}
	.st30{fill:#CD4561;}
	.st31{fill:#A8262B;}
	.st32{fill:#581D14;}
	.st33{fill:#8B2327;}
	.st34{fill:#721D1F;}
	.st35{fill:#FCF7B2;}
</style>
<ellipse class="st0" cx="160.6" cy="161.9" rx="155.7" ry="152.8"/>
<g>
	<path class="st1" d="M287.7,180.5c-2.2-0.5-3.8,0.1-5.3,1.3c-0.4-0.3-0.7-0.5-1-0.7c-1.9-1.2-6.5-3.7-8.2-4.2
		c-1.8-0.6-2.8-0.5-4.7-0.2c-2.1,0.3-3.8,0.9-5.7,1.8c-1.6,0.8-5.5,3.5-8.1,5.5c-0.9,0.7-1.8,1.4-2.2,1.6c-0.5,0.3-1.2,0.8-2,1.5
		c-0.9,0.7-3.3,2.4-6.1,4.1c-1,0.6-2,1.1-3.8,2c-1.8,0.9-2.7,1.3-3.5,1.8c-1.7-1.1-3.7-1.4-4.4-1.4c-0.3,0-0.8-0.1-0.9-0.2
		c-1.5-0.4-4.2-0.9-6.9-0.4c-0.1-0.1-0.2-0.1-0.2-0.2c-3-2.2-6.4-1-8.4-0.3c-0.1,0-0.1,0-0.2,0.1c-1.2-1-2.7-1.4-3.9-1.7
		c-3.9-1-4.7-1.4-6.5-2.3c-1.7-0.9-4.7-2.3-7.9-3.5c-3-1.2-6-2.6-8.6-4.2c-0.5-0.3-1.1-0.7-1.5-1l-0.4-0.2c-0.3-0.2-1-0.7-1.5-1
		c-1.7-1.2-3.8-2.3-6-3c-0.1-1.4-0.8-2.6-1.7-4.2c-0.7-1.2-1.2-2.2-1.5-2.9c-0.6-1.5-3.4-7.2-4.6-8.6c-0.7-0.8-1.5-1.4-2.5-1.9
		c-0.1-0.2-0.1-0.3-0.2-0.5l-1.1-2.2c-0.5-1.1-1.3-2.8-1.6-3.7c-1.3-3.5-1.8-4.5-4.3-10.7l-1.3-3c-0.7-1.7-2.1-5.5-3.3-8.6
		c-0.9-2.5-1.3-3.4-1.4-3.7c-0.1-0.2-0.4-1-0.7-1.9c-0.4-1.1-1.2-3.6-1.9-5.7c-1.1-3.2-1.6-4.5-2.5-7.9c-0.2-0.8-0.6-2.1-0.9-2.9
		c-0.2-0.6-0.5-1.4-0.6-1.9c-0.1-0.5-0.4-1.7-0.7-2.5c-0.5-1.7-1-3.6-1.3-4.8c-0.5-2-1.1-4.3-2.8-5.8c0.1-2.4-0.2-5.9-1.3-7.8
		c-0.4-0.7-0.8-1.3-1.4-1.7c-0.1-1.3-0.3-2.6-0.7-3.7c-0.1-0.4-0.3-1.1-0.5-1.5l0,0c-0.7-2.3-1.8-4-3.9-6.5
		c-0.4-0.5-1.1-1.3-1.5-1.9c-1.1-1.4-1.7-2-3-3c-2.6-1.9-5.3-3-8.9-4c-2.3-0.6-7.4-1.2-9.8-1c-2.5,0.2-6.1,0.6-8.5,1
		c0-0.1-0.1-0.3-0.1-0.4c-1.4-3.8-4.8-4.8-10.2-3c-2,0.7-2.7,0.9-4,2c-1.8,0.4-3.3,1.5-4.7,2.6c-1.1,0.8-3.4,2.6-4,5.3
		c-2.4,0.5-5,1.1-7,1.8l-0.5,0.2c-0.1,0-0.2,0.1-0.3,0.1c-0.6-1.2-1.7-2.4-3.6-2.9c-0.1,0-0.1,0-0.2,0c-0.8-0.2-1.8-0.2-2.6,0
		c-0.1,0-0.2,0-0.3,0.1c-0.3,0.1-0.8,0.2-2.5,1.1c-0.9,0.5-1.7,1-2.4,1.7c-2.6,0.6-4.8,2.9-5.7,4.2c-0.8,1.2-1.6,3.3-1.6,5.4
		c0,0.4,0,0.8,0.1,1.2c-2,1.4-3.6,3.7-4.5,5.3c-2.9,4.7-3.7,6.2-4.6,8.4c-0.2,0.4-0.7,1.6-1.1,2.5c-1.1,2.4-1.6,4-2.3,7.5
		c-0.7,3.2-1,6.3-0.9,9.4c0.1,4,1.6,9.1,3.8,12.4l0,0c0,0,2.1,3.2,3,4.1c0.9,0.9,2.1,1.5,3.4,1.7c0.8,1.9,2.1,4.2,3.3,5.9
		c1.9,2.4,3.1,4,4.2,4.9c0.4,0.9,0.9,1.7,1.6,2.6c0.5,0.7,1.1,1.4,1.8,1.9c0.3,0.8,0.7,1.5,1.9,3.1c0.4,0.5,1.2,1.8,1.9,2.8
		c3.2,5.4,4,6,4.7,6.5c0.5,0.3,0.9,0.6,1.4,0.7c0,0.1,0.1,0.3,0.2,0.4c0,0.1,0,0.2,0,0.4c0,0,0,0,0,0.1c-0.2,2,0.5,3.1,2,5.7
		c0.5,0.8,1.2,2,2.1,2.9c0.5,2.5,5.4,10.8,5.5,10.8c0.7,1.2,1.4,2.3,2.3,3.1c0,0.2,0.1,0.5,0.1,0.7c0,0.1,0,0.1,0.1,0.2
		c0.3,1.1,2.9,5.6,4.3,6.8l0,0c0.3,1.3,1.2,2.7,2.8,5.3c1.9,3,5.4,8.4,7.2,10.6l1.7,2.1c1,1.2,2.3,2.6,3.6,3.8
		c-0.7,2.4,0.2,5.9,1.1,7.9c0,0.1-0.1,0.3-0.1,0.4c-0.2,0.9-0.4,2.2,0.3,5.4c0.1,0.7,0.3,1.9,0.4,2.7c0.5,3.9,0.7,5,1.2,7.4
		c0.7,3,1.6,6.3,2.3,8.1c0.4,1,1.2,2.7,1.8,3.9c1.1,2.1,1.5,2.7,2.6,4c0.4,0.4,0.7,0.8,1,1.1c-0.6,2.8,1.5,5.4,2.8,6.9
		c0.6,0.6,1.2,1.4,1.7,2l0.7,0.8c0.5,0.6,1.5,1.7,2,2.3l1.8,2.1c0.1,0.1,1.1,1.3,1.8,1.9c0.3,0.3,1.3,1.3,2.2,2.3
		c1.9,2,6.8,6.8,8.8,8.5c0.9,0.8,3.4,2.8,5.5,3.4c2.7,0.9,4.7,0,6.6-0.9c0.7-0.4,3.2-1.5,6.2-2.5c6.3-2.2,13-5,16.1-6.6
		c1-0.5,1.7-1.1,2.2-1.7c0.5-0.1,0.9-0.2,1.4-0.3c1.9-0.6,3.2-2.1,5.7-5c0.6-0.8,1.4-1.6,1.7-1.9c4-3.9,5.5-5.6,6.1-6.5
		c4.3,0.4,7,0.6,8.6,0.6c1.2,0,7.3,0.1,9.9-0.5c0.2,0,0.9-0.2,1.6-0.3c1.7-0.2,2.2-0.3,2.5-0.4c0.3-0.1,1.2-0.3,2.1-0.5
		c3-0.7,10.8-3.1,13.6-4.3c0.4-0.2,1.5-0.6,2.3-0.9c1.9-0.7,3.9-1.6,6.9-2.9c1.8-0.8,5.3-2.9,6.8-4.1c0.2-0.1,0.7-0.5,1.3-0.8
		c1-0.5,2.3-1.3,3.2-2c0.7-0.5,2.1-1.5,3.2-2.3c3.6-2.5,4.9-3.5,6.8-5c0.9-0.7,2.6-2.1,3.7-3c3.4-2.7,3.7-3,6.9-6.1
		c1.5-1.5,2.8-2.7,3.8-3.8c2.7-2.8,4-4.2,5.4-6.1l3.9-5.3c3.3-4.5,3.9-5.3,6.6-9.2c1.8-2.7,5-8,6-10.4c0.7-1.9,0.8-4,0.2-5.8
		c-0.1-0.2-0.2-0.4-0.3-0.6l-0.2-0.3c-0.1-0.2-0.2-0.4-0.4-0.6C292.6,183.8,290.3,181.1,287.7,180.5z"/>
	<g>
		<path class="st2" d="M152.8,247c0.8-0.2,1.1-0.3,1.2-0.7c0.1-0.3,0.1-0.3-1-1.5c-1.5-1.6-2-2.4-3.1-4.4c-1.2-2.3-3.7-7.8-4.5-10
			c-0.3-0.9-0.8-2.4-1-3.2c-0.6-2.7-0.8-3-1.9-2.8c-0.3,0.1-0.8,0.2-1.1,0.4c-0.8,0.4-0.9,0.9-0.2,3c0.6,1.9,0.9,3.1,1.5,5.3
			c0.4,1.5,0.6,2,1.5,4.1c1.8,3.8,3.1,6.1,5.3,8.6c0.5,0.6,1,1.1,1.3,1.2C151.2,247.1,151.9,247.2,152.8,247z"/>
		<path class="st2" d="M141.7,233.1c-0.2-0.9-0.6-2.6-0.9-3.7c-0.3-1.1-0.6-2.3-0.7-2.7c-0.1-0.4-0.2-0.8-0.3-1
			c-0.2-0.4-0.8-0.6-1.4-0.5c-1,0.1-1.5,0.6-1.5,1.3c0,0.4,0.2,1.9,0.4,2.9c0.4,1.7,2.7,8,3.7,10.2c1.5,3.2,2,4,3.7,6
			c1.8,2,1.8,2,2.4,2.1c0.9,0.2,1.6-0.3,1.5-0.9c0-0.2-0.5-0.8-1-1.5c-1.4-1.9-2.2-3.1-3.3-5.5C142.7,236.4,142.1,235,141.7,233.1z"
			/>
		<path class="st3" d="M97.4,94.2L97.1,93L97.4,94.2C97.3,94.2,97.4,94.3,97.4,94.2C97.4,94.4,97.4,94.4,97.4,94.2z"/>
		<path class="st3" d="M91.6,117.7c1,2.2,1.4,2.3,2.9,1.2c0.5-0.3,0.9-0.8,1.1-1c0.3-0.4,0.3-1.6,0-2.5c-0.3-1-1.8-5-2.7-7.4
			c-1.4-3.6-1.8-4.2-3.3-4.7c-0.9-0.3-2.5-0.6-3.1-0.6c-0.7,0-1.1,0.4-1,1.1c0.1,0.4,1.7,2.9,2.4,3.6c1.3,1.4,2.5,4.6,3,8.2
			C91,116.2,91.2,116.7,91.6,117.7z"/>
		<path class="st3" d="M126.1,192.5c0.5,1.1,1.3,2.8,1.8,3.8c0.5,1,1.6,3.4,2.5,5.4c0.9,1.9,1.7,3.5,1.7,3.6c0,0.1,0.4,0.8,0.8,1.7
			c1.3,2.4,3.6,7.4,4.1,8.5c0.6,1.4,0.9,1.7,1.7,1.6c0.3,0,0.8-0.1,1-0.2c0.7-0.4,0.7-0.6-0.1-2.5c-0.9-2.4-1.8-4.1-5.8-11.8
			c-1.9-3.7-4.3-8.4-5.4-10.5c-1-2-2.6-5.3-3.5-7.2c-0.9-1.9-2-4.1-2.3-4.9s-1.9-3.9-3.5-6.9c-1.7-3.2-3.5-6.8-4.4-8.8
			c-0.9-1.9-2.3-4.9-3.2-6.8c-0.9-1.8-2.3-4.6-3.1-6.4c-1.8-3.8-12.9-24.6-15-28.3c-0.9-1.6-1.9-3.4-2.6-4.7
			c-1.5-3.1-1.4-2.9-2.2-2.9c-0.9,0.1-1.6,0.9-1.6,1.7c0,0.2,0.1,0.9,0.2,1.5l0.1,1.2l2.2,4c1.2,2.2,2.9,5.4,3.8,7
			c0.8,1.6,2.2,3.9,3,5.3c1.2,1.9,1.5,2.5,2,3.7c0.6,1.4,5.4,10.3,8.1,15c0.8,1.4,1.3,2.3,1.4,2.7l0.2,0.6l-0.4-0.5
			c-0.2-0.3-1-1.5-1.8-2.7c-0.7-1.2-1.6-2.6-1.9-3c-0.6-0.8-4.8-9-7-13.3c-0.6-1.1-1.4-2.6-2.2-3.9c-0.9-1.5-2.2-3.7-4.5-8.2
			c-3-5.7-3.2-6.2-3.5-7.3c-0.4-1.6-0.7-2-1.2-2c-0.7-0.1-1.9,0.7-2,1.5c0,0.3,0.1,0.6,0.6,1.8c0.3,0.8,0.9,2.1,1.4,3
			c1.6,3.6,4.4,9.5,5.2,10.7c0.4,0.7,1.8,3,3,5.3c3.1,5.7,8.7,15.3,10.5,18.2c1.2,1.9,2.6,4.5,7.6,13.8c7.3,13.7,11.5,22,13.3,26.7
			c0.4,0.9,1,2.4,1.4,3.3c0.4,0.9,1,2.2,1.3,2.9c1.5,3.6,2.3,5.4,3.3,7.7c0.6,1.3,1.4,3.1,1.7,3.8c0.9,1.9,1.1,2.1,2.5,1.8
			c0.7-0.1,1-0.5,0.9-1.1c-0.1-0.5-0.9-2.4-3.1-7c-1-2.1-2.2-4.6-2.7-5.8c-0.5-1.1-1.4-3-2-4.2c-0.6-1.2-1.2-2.7-1.4-3.2
			c-0.2-0.5-1-2.3-1.7-3.9c-0.7-1.6-1.6-3.5-1.9-4.2c-0.9-2.1-1.9-4.4-2.6-6c-0.4-0.8-0.6-1.4-0.5-1.4c0.3,0.1,2,3.1,3.5,6.4
			C124.3,189,125.5,191.4,126.1,192.5z M109.1,160.5c-0.2-0.3-0.3-0.6-0.2-0.6c0.1,0,0.2,0.2,0.4,0.5c0.2,0.3,0.2,0.6,0.2,0.6
			C109.5,161.1,109.3,160.9,109.1,160.5z M110.5,163.3c-0.2-0.3-0.3-0.7-0.3-0.8c0-0.2,0.1,0,0.3,0.4c0.2,0.3,0.3,0.7,0.3,0.8
			C110.8,163.9,110.7,163.7,110.5,163.3z M118,178c-0.6-0.7-1-1.4-1.7-2.6c-1.7-3-3.4-6.7-3.9-7.9c-0.3-0.7-0.5-1.4-0.6-1.6
			c-0.1-0.3-0.1-0.4,0-0.3c0.1,0.1,0.9,1.5,1.8,3.2c3.7,7,5.4,10.2,5.3,10.2C118.7,178.9,118.4,178.5,118,178z"/>
		<path class="st3" d="M72.8,111.4c-0.1-0.1-0.3-0.2-0.4-0.3c-0.6-0.2-1,0.6-0.8,1.7c0.3,1.3,1.6,4.7,2.8,7.3c3,6.1,4.7,7.4,8,6
			c1.1-0.5,1.1-0.5,1.2-0.9c0.1-0.5-0.3-1.6-1.4-3.7l-0.7-1.5l-1.1-0.3c-1.2-0.4-1.6-0.7-2.4-1.9c-0.3-0.6-0.6-1.1-0.8-1.8
			c-0.5-1.6-0.6-1.8-1.5-2.1c-1-0.4-1.5-0.7-2.1-1.5C73.2,111.9,72.9,111.5,72.8,111.4z"/>
		<path class="st3" d="M85.3,109.1c-0.4,0.2-1.9,0.9-3.3,1.6c-4,2.1-4.2,2.3-3.5,4c0.5,1.3,1.3,2.3,1.9,2.7c0.7,0.4,1,0.4,2.2-0.5
			c1.2-0.8,3.5-2.1,4.6-2.5c1-0.4,1.5-0.8,1.6-1.3c0-0.5-0.4-2.4-0.7-3c-0.1-0.3-0.5-0.7-0.7-0.9C86.8,108.7,86.3,108.7,85.3,109.1z
			"/>
		<path class="st2" d="M242.9,197.8c-2.8,1.3-2.8,1.3-4.1,2.3c-1.6,1.3-3.8,3.7-5.6,6.4c-0.6,0.8-0.9,1-1.3,0.9
			c-1-0.3-0.3-2.1,2-5.4c1.2-1.6,1.3-2,0.9-2.5c-0.3-0.4-1.5-0.8-2.5-0.9c-0.4,0-1.2-0.2-1.6-0.3c-2.3-0.6-4.4-0.6-5.8,0
			c-1,0.5-1.5,0.9-2.6,2.5c-1.5,2-2.3,2.9-2.8,2.7c-0.3-0.1-0.3-0.3-0.2-0.8c0.1-0.4,0.4-1,2.1-3.7c0.9-1.4,1-1.9,0.5-2.2
			c-0.6-0.5-1.6-0.4-3.7,0.4c-2.2,0.8-3.2,1.6-6.5,4.8c-1.9,2-2.4,2.5-4.2,4.9c-1.7,2.2-2.1,2.7-2.5,3c-0.3,0.2-0.5,0.3-0.6,0.1
			c-0.1-0.1-0.2-0.2-0.2-0.4c0-0.4,4.3-6.7,5.9-8.5c0.3-0.3,1-1.3,1.7-2.2c1.9-2.6,1.9-2.7-0.7-3.4c-4.1-1.1-5.4-1.5-7.6-2.7
			c-1.5-0.8-4.3-2.1-7.4-3.3c-3.2-1.3-6.6-2.9-9.5-4.7c-0.6-0.4-1.5-0.9-1.8-1.2c-0.3-0.3-1.2-0.8-1.8-1.2c-1.4-1-3.3-2-5.2-2.5
			c-1.8-0.5-2.3-0.8-3.7-1.9c-1.8-1.4-2.5-2.2-4.3-5.5c-1-1.7-1.7-2.8-1.8-2.9c-0.2-0.2-0.8-0.2-1.3-0.1c-0.4,0.1-0.9,0.5-1.2,1
			c-0.2,0.3-0.3,0.6-0.3,1.1c0,0.7,0.4,3.2,0.9,4.7c0.4,1.5,0.6,2.2,0.6,3.8c0.1,0.9,0.1,1.9,0.2,2.3c0.2,1.1,0.9,2.6,2,4.2
			c0.9,1.3,1,1.6,1.9,3.6c1.4,3.2,2.1,5.6,2.4,8.3c0.2,1.5,0,2.5-0.9,5.2c-1.3,3.9-1.5,4.2-3.9,7c-2.5,2.9-3.2,3.5-6.3,5.3
			c-4.7,2.8-7.8,4.3-9.7,4.9c-0.4,0.1-1.5,0.6-2.4,1c-2.6,1.2-3.8,2.3-4.2,3.4c-0.2,0.5-0.1,0.8,0.2,1.2c0.3,0.3,0.7,0.3,2.4-0.1
			c1.7-0.4,1.9-0.4,2-0.1c0.2,0.3-0.2,0.6-1.5,1.1c-1.7,0.8-1.9,0.8-2,1.2c-0.1,0.4,0.1,1,0.5,1.4c0.5,0.4,1.1,0.4,2.3,0
			c1.1-0.3,1.7-0.3,2,0c0.2,0.2,0.1,0.3-0.1,0.5c-0.3,0.2-0.8,0.4-2.1,0.7c-1.6,0.4-1.4,1.6,0.3,1.6c0.7,0,1.8,0,2.8,0.1
			c0.3,0,0.6,0.1,0.6,0.2c0.2,0.3-0.3,0.5-1.4,0.7s-1.4,0.3-1.5,0.7c-0.2,0.7,0.4,1.4,1.3,1.7c0.5,0.2,0.8,0.2,1.8-0.1
			c1.7-0.3,2.8-0.4,3-0.2c0.1,0.1,0.1,0.2,0.1,0.5c-0.2,0.4-0.4,0.5-2.3,1c-1.5,0.4-1.8,0.5-1.9,1c-0.1,0.5,0.1,0.9,0.7,1.1
			c0.9,0.3,1.6,0.3,5.6-0.6c1.4-0.3,1.7-0.3,1.7,0c0,0.2-0.3,0.4-2.5,1.7c-1.4,0.8-2.6,1.5-2.7,1.7c-0.3,0.4-0.3,1,0.1,1.5
			c0.5,0.7,1.3,1.4,1.8,1.6c0.5,0.2,0.9,0,1.8-0.8c0.9-0.8,1.6-1.1,1.8-0.8c0,0.1,0,0.4-0.1,0.7c-0.2,0.7,0.1,1,0.9,1
			c0.6,0,0.7-0.1,2.1-1c0.8-0.5,1.6-1,1.7-1c0.3,0,0.4,0.1,0.4,0.7c0,0.5,0.2,0.7,0.6,0.6c0.2,0,0.9-0.4,1.7-1c1.5-1,1.9-1.1,2-0.7
			c0,0.1-0.1,0.4-0.3,0.7c-0.6,0.9-0.4,1.4,0.6,1.4c0.8,0,1.1-0.1,2.4-1.1c1.5-1.1,2-1.3,2.1-1c0.1,0.1,0,0.4-0.3,0.8
			c-0.5,0.7-0.6,1-0.2,1.3c0.7,0.5,1.8,0,3.7-1.4c0.9-0.7,1.1-0.9,1.3-0.8c0.4,0.1,0.4,0.4,0.2,1.2c-0.2,0.9-0.2,0.8,0.1,1
			c0.3,0.2,1.4-0.4,3.6-2c1-0.7,1.8-1.3,1.9-1.3c0.2,0.1-0.1,0.5-1.5,1.8c-1.5,1.4-1.7,1.7-1.3,2c0.3,0.2,0.9,0,2.6-1.1
			c0.8-0.5,1.8-1.1,2.1-1.3l0.6-0.3l0.2,0.3c0.2,0.3,0,0.7-0.7,1.8c-0.3,0.5-0.1,0.8,0.5,1c0.7,0.1,1.6-0.1,2.6-0.6
			c1-0.5,1.7-1,2.8-2.1c0.8-0.7,0.8-0.8,1.2-0.7c0.2,0,0.4,0.1,0.4,0.1c0.1,0.3-0.2,1-0.7,1.8c-0.7,1-0.8,1.2-0.5,1.5
			c0.4,0.4,0.9,0.3,3-0.8c1.9-1,3-1.8,4.6-3.2c0.7-0.6,0.8-0.7,1.1-0.6c0.2,0.1,0.2,0.1,0.2,0.4c-0.1,0.4-1.1,1.6-2.1,2.5
			c-0.8,0.7-1.1,1.2-1,1.4c0,0.1,0.2,0.2,0.4,0.2c0.9,0.3,3.9-1.2,6-3c0.7-0.6,1.3-1.1,1.4-1.1c0.4-0.1,0.4,0.4,0,0.9
			c-0.7,1-0.8,1.6-0.2,1.6c0.4,0,1.7-0.7,2.8-1.5c0.8-0.6,1-0.8,1.3-0.8c0.5,0,0.6,0.4,0.3,1.2c-0.2,0.5-0.2,0.7-0.1,1
			c0.4,0.6,1.2,0.3,2.6-1c1.1-1,1.6-1.5,2.6-2.9c0.8-1.1,1.2-1.4,1.5-1.1c0.2,0.2,0.2,0.5-0.1,1.5c-0.2,0.7-0.1,1,0.2,1.1
			c0.3,0.1,0.6-0.1,1.2-0.8c0.7-0.8,1.4-2,2.1-3.5c0.6-1.4,0.9-1.8,1.2-1.8c0.3,0,0.3,0.4-0.1,1.7c-0.3,1.2-0.2,1.6,0.2,1.7
			c0.1,0,0.4-0.1,0.6-0.2c0.4-0.3,1.9-2.3,2.5-3.2c0.6-1,1.3-1.2,1.4-0.4c0,0.2-0.1,0.7-0.2,1.2c-0.2,0.9-0.1,1.3,0.2,1.4
			c0.3,0.1,0.8-0.3,1.5-1.2c0.9-1.2,1.4-2.3,2.1-4.6c0.6-2,0.9-2.4,1.1-1.7c0.1,0.5-0.2,2.8-0.6,4.1c-0.3,0.9-0.3,1.3-0.2,1.5
			c0.2,0.3,0.5,0.4,1,0.1c0.6-0.3,1.5-1.8,2.7-4.5c0.3-0.6,0.6-1.1,0.7-1.2c0.4-0.2,0.5,0.3,0.2,1.2c-0.2,0.9-0.2,1.2,0.3,1.3
			c0.3,0.1,1.1-0.3,1.5-0.7c0.4-0.5,1-1.9,1.6-3.9c0.6-1.8,0.9-2.1,1.2-1.5c0.1,0.2,0.2,0.8,0.2,1.3c0,0.7,0,1.1,0.2,1.2
			c0.2,0.2,0.7,0.1,1-0.2c0.3-0.3,1.1-2.2,1.3-3.1c0.1-0.5,0.2-0.9,0.3-1c0.2-0.1,0.4,0.3,0.5,0.9c0.2,0.7,0.6,0.9,1,0.4
			c0.4-0.4,1.1-2.9,1.3-4.2c0.2-1.5,0.3-1.9,0.6-2c0.3,0,0.5,0.5,0.6,1.8c0.1,1.4,0.3,1.9,0.7,1.8c0.6-0.2,1-1.3,1.3-3.7
			c0.1-0.8,0.2-1.6,0.3-1.7c0.2-0.3,0.5-0.1,0.6,0.4c0.1,0.6,0.4,0.8,0.8,0.6c0.4-0.2,1.1-2.6,1.1-4.1c0.1-1.7,0.1-2.4,0.3-2.8
			c0.2-0.4,0.5-0.5,0.8-0.2c0.2,0.3,0.7,2.9,0.7,4.1c0,1.7,0.6,2,1.6,0.9c0.5-0.6,2.1-3.9,2.4-5.4c0.4-1.7,0.8-1.8,1.5-0.6
			c0.4,0.6,0.4,0.7,0.6,0.6c0.1-0.1,0.3-0.2,0.4-0.4c0.1-0.2,0.4-1.6,0.5-2.8c0.1-0.5,0.2-0.5,0.5-0.2c0.4,0.5,0.6,0.6,0.9,0.5
			c0.5-0.3,0.9-2,0.9-4.1c0-1.1,0.1-1.8,0.3-1.9c0.2-0.1,0.6,0.1,0.8,0.4c0.1,0.2,0.3,0.9,0.4,1.6c0.2,1.3,0.4,1.6,0.8,1.4
			s0.7-1.5,0.9-3.2c0.1-0.9,0.2-1.7,0.3-1.8c0.2-0.2,0.5,0.1,0.7,0.7c0.2,0.8,0.4,0.9,0.8,0.7c0.4-0.2,0.6-1.2,0.6-3.3
			c0-2,0-2.3,0.3-2.4c0.4-0.2,0.7,0.3,1,1.5c0.3,1.1,0.5,1.5,0.9,1.4s0.5-0.5,0.5-1.8c0-1.4,0.1-1.6,0.7-1.2c1,0.6,1.2,0,1-2.6
			c0-0.4,0-0.6,0.2-0.6c0.2-0.1,0.3,0,0.6,0.6c0.5,0.8,0.6,0.9,1,0.7c0.3-0.2,0.4-0.8,0.3-1.4c-0.4-1.6-0.3-1.9,0.4-1.5
			c0.5,0.3,0.9,0.1,1-0.4c0-0.4-0.2-1.6-0.6-2.9c-0.1-0.4-0.2-0.8-0.1-1c0.1-0.3,0.1-0.3,0.4-0.2c0.3,0.1,0.8,0.8,1.4,1.9
			c0.3,0.6,0.5,0.8,0.7,0.9c0.4,0.1,0.7,0,1.1-0.6c0.5-0.8,0.7-1.3,0.7-2c-0.1-0.8-0.5-1.2-2-2.1c-1.8-1.2-5.9-3.3-6.9-3.6
			c-0.9-0.3-1.1-0.3-2.4-0.1c-1.5,0.2-2.6,0.6-4,1.3c-1.2,0.6-4.7,3-7.4,4.9c-1.3,1-2.5,1.8-2.7,1.9c-0.2,0.1-0.8,0.6-1.5,1.1
			c-1.2,1-3.9,2.8-6.6,4.4C246.1,196.1,245,196.8,242.9,197.8z M215.7,210.3c-1.1,2.1-1.3,2.6-2.1,5.4c-0.9,3-1.1,3.4-1.5,2.9
			c-0.3-0.4,0.5-3.9,1.4-6.1c0.5-1.2,1.4-2.9,2.3-4.3c0.7-1.1,1.2-1.6,1.3-1.4C217.3,207.2,217,207.8,215.7,210.3z M230.5,210.7
			c0,0.2-1,2.7-1.3,3.2c-0.4,0.7-0.9,0.7-0.9,0.1c0-0.3,0.8-2,1.3-2.9c0.2-0.4,0.5-0.7,0.5-0.7C230.2,210.2,230.5,210.5,230.5,210.7
			z"/>
		<path class="st4" d="M94.3,69.3c0.3,0.4,0.4,0.5,1,0.6c0.4,0.1,0.9,0.2,1.1,0.2c0.2,0,0.8,0,1.3,0.1c1.1,0.1,1.3,0.1,1.6-0.2
			c0.3-0.3,0.5-1.9,0.4-3.6c0-1,0-1.9,0.1-2.4c0.2-0.6,0.2-0.9,0-1.3c-0.3-0.9-1.1-0.9-3.7,0c-1.9,0.6-1.8,0.6-2.2,1
			c-0.7,0.6-0.8,2.5-0.3,4.2C93.9,68.4,94.2,69.1,94.3,69.3z"/>
		<path class="st3" d="M127.7,223.5c1.2,0,2.9,0,3.7,0c0.8,0,2,0,2.6-0.1c0.6-0.1,1.4-0.1,1.7-0.1c0.8,0,3.6-0.5,5.2-0.8
			c0.7-0.2,1.6-0.4,2.1-0.5c1-0.2,4.6-1.4,6.2-2.1c0.5-0.2,1.5-0.6,2.3-0.8c1.3-0.4,1.7-0.6,6-2.8c6.1-3.2,6.3-3.4,9.6-7.2
			c1.5-1.7,1.9-2.4,2.6-4.4c1-2.7,1.5-4.2,1.5-4.8c0-0.6-0.2-2.4-0.4-3.1c-0.1-0.3-0.2-0.8-0.3-1.2c-0.2-0.9-1-3.1-1.9-5.5
			c-0.4-1-0.8-1.9-1.3-2.7c-1.7-2.8-2.3-4.5-2.3-7c0-0.7-0.2-1.7-0.4-2.6c-0.2-0.8-0.4-1.7-0.4-2.1s-0.2-1.2-0.4-1.9
			c-0.5-2-0.4-3.8,0.3-4.7c0.3-0.5,1.5-1.2,2.3-1.4c0.5-0.1,0.8-0.1,1.3,0c1,0.3,1.3,0.6,2,1.6c0.5,0.7,0.7,1.3,1.2,2.4
			c0.7,1.7,1.3,2.9,2.2,3.9c0.9,1,1.5,1.1,1.8,0.4c0.1-0.3,0-0.4-1.1-2.3c-0.8-1.4-1.4-2.5-1.8-3.5c-0.7-1.8-3.2-6.6-3.8-7.2
			c-0.3-0.3-0.6-0.5-1.1-0.7c-0.6-0.2-0.7-0.2-2,0.1c-0.7,0.2-1.6,0.4-1.9,0.5c-0.8,0.2-0.7,0.2-1.4,0.7c-1.2,0.9-2.4,2.3-2.9,3.3
			c-0.4,0.8-0.3,1.5,0.2,4s0.7,3.2,1,6.2c0.4,2.9,0.5,5.2,0.3,7.2c-0.1,1.6,0.2,2.3,2.3,5.2c2.3,3,2.8,3.8,3.3,5.2
			c0.4,1.3,0.5,1.5,0.4,3c-0.3,4.3-0.4,4.8-1.5,6.9c-1.6,2.8-3.6,5.3-6.4,7.4c-2,1.6-3.1,2.3-6,3.8c-3.3,1.7-5.5,2.6-7.1,2.9
			c-0.6,0.1-1.9,0.4-2.7,0.6c-0.9,0.2-2.3,0.5-3.3,0.6c-0.9,0.1-1.7,0.2-1.8,0.3c-0.2,0.1-4.8,0.4-6,0.4c-1.9,0-2.7-0.1-6.1-0.7
			c-4.5-0.8-7.9-1.7-10.7-2.8c-2-0.8-2.6-1.1-3.6-1.8c-0.4-0.3-0.9-0.6-1.1-0.6c-0.3,0-0.4,0-0.5,0.3c-0.3,0.5,0.5,4.2,1.1,4.9
			c0.5,0.6,3.8,2,6.8,2.8C120.2,223.2,122.4,223.5,127.7,223.5z"/>
		<path class="st2" d="M123,251.5c0.3-0.1,0.6-0.5,1-1c0.6-0.8,0.8-1,1.1-0.8c0.2,0.1,0.2,0.2,0.3,0.5c0.1,0.5,0.5,0.8,1,0.7
			c0.6-0.1,0.8-0.3,1.5-1.3c0.8-1.1,1.2-1.4,1.5-1.2c0.2,0.1,0.2,0.2,0.1,0.5c0,0.2-0.1,0.5-0.1,0.7c0,0.4,0.5,0.7,1.3,0.6
			c0.6-0.1,0.6-0.1,1.6-0.9c1.4-1.2,1.8-1.4,2.1-1.5c0.3,0,0.4,0.2,0.4,0.6c-0.2,1.3,2,1,3-0.4c0.5-0.6,1.2-1.2,1.5-1.1
			c0.2,0,0.2,0.1,0.3,0.6v0.6l0.4,0.2c0.4,0.2,1.6,0.1,2.3-0.1c0.8-0.3,0.6-1-0.4-2.1c-1.1-1.3-3.9-6.8-4.5-9
			c-0.2-0.6-0.5-1.6-0.7-2.3c-0.4-1.3-1.2-4.2-1.4-5.4c-0.1-0.4-0.1-1.3-0.1-1.9c0-0.7,0-1.3-0.1-1.4c-0.2-0.4-0.7-0.5-2.8-0.5
			c-1.2,0-2.3,0-2.5,0s-1.4,0-2.7,0c-4.1,0-6.2-0.2-9.2-1c-1.9-0.5-3-0.9-5.2-1.9c-0.6-0.3-1.2-0.5-1.3-0.5c-0.4,0-0.8,0.3-0.8,0.5
			c-0.1,0.4,0,1.6,0.3,3.2c0.1,0.8,0.4,2.1,0.5,2.9c0.5,3.8,0.7,4.8,1.2,7c0.6,2.8,1.5,5.9,2.1,7.5c0.2,0.7,0.9,2.1,1.5,3.3
			c1,1.9,1.1,2.1,1.9,3.1c1.1,1.3,1.9,2,2.3,2.1C121.1,252.1,122.4,251.8,123,251.5z M118,231.1c-0.2-0.4,0.1-0.6,0.8-0.5
			c1,0.1,3.7,0.7,4.1,0.9c0.5,0.3,0.6,0.6,0.4,0.9c-0.2,0.3-0.2,0.3-0.7,0.4c-0.4,0-1-0.1-1.9-0.3
			C119.1,232.1,118.2,231.6,118,231.1z M119.9,236.4c0-0.3,0.4-0.5,1.1-0.3c1.4,0.3,3.2,0.7,3.5,0.8c0.7,0.3,0.5,0.9-0.3,1
			c-0.6,0.1-2.1-0.2-3.1-0.6C120.3,237,120,236.8,119.9,236.4z M118.8,245.4c0.1-0.2,0.3-0.2,1-0.2c1.3,0,2-0.4,2-1.3
			s-0.9-1.7-2.5-2.5c-0.9-0.4-1.2-0.7-1.3-0.9c-0.1-0.4,0.5-0.4,2.3,0c1,0.2,1.9,0.4,2.1,0.4c0.1,0,0.8,0.1,1.5,0.3
			c0.7,0.1,2,0.4,3,0.5c1,0.1,1.8,0.3,1.9,0.4c0.5,0.3-0.1,0.8-1,0.9c-0.6,0.1-1.2,0.4-1.3,0.8c-0.3,0.9,0.8,1.2,4.5,1.3
			c1.5,0,2.3,0.1,2.4,0.2c0.1,0.2,0.1,0.2-0.3,0.4c-0.3,0.1-1,0.2-1.5,0.3c-0.6,0-1.7,0.2-2.4,0.4c-1.5,0.4-1.8,0.4-3.8,0.3
			c-0.7,0-1.6,0-2.1,0c-1.5,0.2-3.6-0.1-4.2-0.4C118.6,245.7,118.6,245.6,118.8,245.4z"/>
		<path class="st5" d="M180.1,255.2c-0.8,0.1-1.5,0.2-1.6,0.3c-0.1,0-0.5,0.4-1,0.8c-0.4,0.4-1.7,1.5-2.8,2.4
			c-1.1,0.9-2.5,2.1-3.1,2.6c-0.6,0.5-1.2,1-1.3,1.1c-0.4,0.2-0.8,0.8-0.8,1.2c0,0.7,1.5,3.1,2.2,3.6c0.5,0.3,1.2,0.4,1.8,0.2
			c0.6-0.2,1.5-1.1,3.3-3.4c0.6-0.8,1.6-1.9,2.1-2.3c2.5-2.5,5.2-5.2,5.4-5.6c0.2-0.5-0.1-0.8-0.7-0.9
			C182.1,255,181.5,255,180.1,255.2z"/>
		<path class="st3" d="M115.4,214.1c0.7,0.3,1.7,0.8,2.2,1c3.4,1.7,4,1.8,8.3,2.4c4.4,0.6,4.5,0.6,4.8-0.1c0.2-0.4,0.1-0.5-0.3-1.4
			c-1-1.9-3.6-7.7-4.2-9.5c-0.2-0.5-0.6-1.3-0.8-1.7c-0.2-0.4-0.7-1.5-1-2.3c-1.4-3.4-3.8-8.8-6.7-14.4
			c-2.9-5.9-15.3-29.2-15.7-29.4c-0.1,0-0.8-1.3-1.7-2.9c-4.8-8.9-6-10.9-6.1-10.9c-0.2-0.1-5.8-10.9-7.1-13.6
			c-1.5-3.3-1.9-3.8-2.5-4c-0.5-0.1-0.5-0.1-1.7,0.6c-1.4,0.7-1.8,0.8-2.7,0.8c-1.6-0.1-3.2-1.1-4.5-2.8c-1.3-1.9-3.2-5.8-4.5-9.7
			c-1.3-3.6-1.3-4.2-0.1-5.9c0.3-0.4,0.5-0.8,0.5-1c0-0.2-0.4-1.1-1.4-3.1c-0.8-1.5-2.2-4.4-3.1-6.5c-0.9-2-2.2-4.6-2.8-5.8
			c-1.1-2.1-1.1-2.1-1.4-2.2c-0.2-0.1-0.5-0.1-0.6,0c-0.4,0.2-1.3,1.3-3.3,4c-2.4,3.4-2.7,4-3.9,7.9c-0.7,2.2-0.9,3-1.1,4.9
			c-0.4,2.9-0.4,4.4-0.3,5.6c0.1,0.5,0.1,1.4,0.2,2.1c0.1,1.1,0.2,2.2,1.1,7.3c0.4,2.3,1,4.7,1.5,6.1c0.5,1.5,1.8,3.9,2.9,5.4
			c3,4,3.1,4.1,3.7,4.1c0.4,0,0.7-0.4,1.3-1.4c0.4-0.6,0.5-0.9,1.1-1.2c1-0.6,1.1-1,0.6-1.8c-0.4-0.7-1.1-1.1-3.3-2
			c-2.1-0.9-2.4-1.1-1.9-1.9c0.3-0.6,0.8-1,1.9-1.6c0.9-0.5,0.9-0.5,1-1c0.1-0.6,0.3-0.3-1.5-3.6c-0.9-1.7-1-2-1-2.2
			c0.1-0.3,0.4-0.3,1,0c0.6,0.4,1.7,0.7,1.9,0.6c0.5-0.3,0.3-1.1-1-3.6c-1.2-2.3-1.8-4.8-1.7-6.9c0-1.2,0.2-1.6,0.5-1.7
			c0.2,0,0.2,0.1,0.5,0.7c0.4,1,2,4,2.8,5.3c0.9,1.4,2.2,2.8,3.3,3.8c0.6,0.6,1.1,1.1,1.5,1.7c0.3,0.5,0.9,1.2,1.2,1.6
			c0.8,1,1.9,2.7,2.7,4.3c0.9,1.6,1.6,3.7,1.9,5.6c0.3,1.9,0.6,2.4,1.6,3.1c1.6,1.1,2.8,2.1,3.9,3.4c2.3,2.7,2.4,2.9,5.5,9.1
			l1.8,3.7l1,1.2c0.5,0.6,1.2,1.6,1.6,2.1c0.6,0.9,1.1,1.5,2,2.2c0.5,0.4,0.8,1.1,0.7,1.3c-0.1,0.3-0.5,0.3-1.8-0.2
			c-3.1-1.1-5.7-3.2-8.3-7.2c-0.8-1.2-1.1-1.5-1.5-1.3s-0.4,0.6,0,1.7c0.5,1.5,0.5,1.6,0.3,1.8c-0.1,0.1-0.3,0.1-0.4,0.1
			c-0.4-0.2-2.3-2.2-3.2-3.4c-1.4-1.9-1.5-1.9-2.9-1c-1,0.6-1.4,0.8-1.7,0.6c-0.4-0.1-0.5-0.5-0.5-1.2c0-1.6-0.9-3.6-2.1-4.8
			c-0.6-0.6-0.8-0.7-1.4-0.8c-0.9-0.1-1.5,0-1.9,0.4s-0.6,1-0.5,1.4c0,0.2,0.5,0.9,1.1,1.6c0.6,0.7,1.5,2.2,2.2,3.2
			c1.6,2.6,2.9,4.6,3.3,4.8c0.5,0.3,0.8,0.4,1.8,0.2c0.5-0.1,1-0.1,1.1-0.1c0.5,0.1,0.7,1.1,0.4,2.4c-0.1,0.8,0.1,1.5,0.6,1.5
			c0.4,0,1-0.3,1.6-0.9c0.9-0.9,1.2-0.7,1.8,1.1c0.5,1.5,0.7,2.6,0.8,4.6c0,1.8,0.1,2,0.4,2.2c0.5,0.4,1.5,0.2,2.4-0.7
			c0.7-0.7,1.1-1.2,1.6-2.9c0.6-1.7,0.8-1.9,1.2-1.2c0.5,1,1,2.9,1.4,5.4c0.2,1.1,0.3,1.6,0.5,1.9c0.6,0.8,1.9,0.7,3.1-0.3
			c0.4-0.3,0.8-0.7,0.9-1c0.3-0.5,0.8-2.2,0.7-2.4c0-0.1,0-0.3,0-0.6c0.2-0.9,1.1-0.3,2.3,1.8c0.7,1.2,1.6,3.7,1.9,5
			c0.1,0,0.2,0,0.4,0.1c0.6,0.2,0.6,0.2,2.2-0.9c0.4-0.3,0.5-0.3,0.8-0.2c0.2,0.1,0.4,0.4,0.7,0.9c0.7,1.4,1.1,3,1.2,5.3
			c0.1,1.9,0.3,2.4,1.5,3c1.9,1.1,3.7,2.8,5.2,4.8c0.5,0.8,0.8,1.3,1.4,2.9c2.1,5.4,2.6,6.5,3.5,8.4c0.9,1.8,2.1,4.1,2.4,5
			c0.2,0.2,0.5,0.6,0.8,1.2c0.4,0.7,1,1.5,1.3,2c0.4,0.6,0.6,0.9,0.5,1c0,0.2-0.1,0.2-0.3,0.2c-0.2,0-2-1.2-3.2-2.2
			c-0.7-0.6-3.3-3.1-3.8-3.7c-0.4-0.4-0.8-0.6-1-0.5c-0.8,0.4-0.3,2.7,1.6,7.2c0.5,1.2,1,2.3,1,2.4c0.1,0.2-0.2,0.3-0.5,0.2
			c-0.3-0.2-2.4-2.5-3.1-3.5c-1.7-2.3-4-6.5-4.9-8.9c-0.8-2.1-0.9-2.4-1.5-2.6c-0.4-0.1-0.4-0.1-1.4,0.5c-1.4,0.9-2.7,1.2-3.1,0.7
			c-0.3-0.3-0.2-0.8,0.1-1.8c0.7-2.1,0.6-4.6-0.1-5.3c-0.5-0.4-0.9-0.3-2,0.5c-1.1,0.8-1.7,1.1-2.8,1.2c-0.9,0.1-1.5,0.3-1.5,0.7
			c-0.1,0.3,0.3,1,2.1,3.8c3.2,5,5.7,8.7,6.9,10.2c0.4,0.5,1.2,1.5,1.7,2.2c2,2.5,5.7,5.6,8.1,6.8
			C113.7,213.3,114.7,213.8,115.4,214.1z M57,114.7c0,0.6,0.1,1.3,0.1,1.5c0,0.2,0.2,0.9,0.2,1.7c0.2,1.8,0.8,5.4,1.1,6.5
			c0.5,2,0.5,2.9,0.1,2.8c-0.5-0.1-1.3-2.6-1.6-4.9c-0.1-0.7-0.3-1.6-0.3-2.1c-0.3-1.8-0.4-4.6-0.1-6.1c0.1-0.3,0.1-0.6,0.2-0.6
			C56.8,113.2,56.9,113.5,57,114.7z M118,211.6c0.1-0.2,0.1-0.2,0.5-0.2c0.2,0,0.6,0.1,0.9,0.2c4.8,1.7,5.7,2,7.8,2.2
			c0.8,0.1,1.2,0.6,0.8,1c-0.5,0.4-2.8,0.2-4.8-0.5c-1.1-0.4-3.9-1.7-4.6-2.2C118,211.9,117.9,211.8,118,211.6z"/>
		<path class="st5" d="M167.1,255.9c0-0.4-0.4-0.7-1.1-0.8c-0.7-0.1-1.4,0.3-1.6,0.9c-0.3,1.1,0.9,1.8,1.8,1.1
			C166.7,256.7,167.1,256.3,167.1,255.9z"/>
		<path class="st5" d="M286.6,185.4c-0.7-0.2-1.1,0.2-3.4,3.2c-0.4,0.5-1.1,1.3-1.4,1.7c-0.4,0.4-1,1.2-1.3,1.8
			c-0.4,0.6-0.8,1.2-0.9,1.3c-0.1,0.2-1,1.3-1.9,2.5s-1.9,2.5-2.3,2.9c-1.3,1.8-2.2,2.8-3.8,4.5c-0.9,1-1.8,2.1-2,2.3
			c-0.5,0.6-2.3,2.8-2.9,3.3c-0.3,0.3-1,1.1-1.6,1.8c-0.6,0.7-1.8,1.9-2.6,2.7c-0.8,0.8-1.6,1.7-1.8,1.8c-0.2,0.2-1,1-1.9,1.8
			s-2.2,2-2.8,2.7c-1.8,1.8-7,6.3-9.4,8.2c-5.8,4.4-8.3,6.3-10.7,7.7c-2.7,1.6-8.9,4.9-9.8,5.3c-0.4,0.1-1,0.4-1.4,0.6
			c-1.5,0.8-7.2,2.9-9.4,3.5c-5.2,1.4-6.9,1.7-10.4,1.9c-0.5,0-1.5,0.1-2.3,0.2c-1.7,0.2-2.8,0.3-4.3,0.4c-0.6,0-1.4,0.1-1.9,0.1
			c-1.7,0.1-3.9,0.2-5.6,0.1c-1,0-2.8,0-4,0c-2.5,0-4.1,0-6.5-0.2c-0.9-0.1-1.7-0.1-1.9-0.1c-0.2,0-0.7-0.1-1.1-0.1
			c-0.4-0.1-1.3-0.2-1.9-0.2c-1.1-0.1-5.8,0.1-7.9,0.2c-0.6,0-1.9,0.1-2.9,0.2c-2.5,0.1-5.9,0.5-7.1,0.7c-3,0.7-10.3,1.7-13.4,2
			c-0.7,0.1-1.5,0.1-1.8,0.2c-0.3,0.1-0.8,0.1-1.1,0.1c-0.3,0-1.2,0.1-1.9,0.3c-0.7,0.2-2.2,0.4-3.3,0.6c-1.1,0.2-2.1,0.4-2.2,0.5
			c-0.1,0.1-0.9,0.2-1.7,0.3c-0.8,0.1-2,0.4-2.5,0.5c-0.6,0.1-1.8,0.4-2.6,0.5c-0.8,0.1-2.3,0.4-3.3,0.6c-2.1,0.4-2,0.4-2.3,0.8
			c-0.4,0.5-0.2,0.8,1.5,2.8c0.9,1,2,2.3,2.5,2.9s1.4,1.6,1.9,2.2c0.5,0.6,1.4,1.6,1.8,2.1c0.5,0.5,1.1,1.2,1.5,1.6
			c0.4,0.3,1.4,1.5,2.4,2.5c1.7,1.8,6.6,6.6,8.4,8.1c1.4,1.2,2.9,2.2,3.6,2.5c0.8,0.3,1.3,0.2,2.6-0.6c1.1-0.6,4-1.8,6.8-2.8
			c5.9-2.1,12.5-4.8,15.5-6.4c1.1-0.5,0.8-1.3-1-3.3c-0.5-0.6-1.2-1.4-1.4-1.7c-2.8-3.5-6-8.9-5.9-9.8c0-0.5,0.3-0.6,1.9-0.9
			c4.2-0.6,7.4-0.9,13.1-0.9c4.7,0,6.2,0,12.6,0.6c4.4,0.4,7.1,0.6,8.6,0.6c3.7,0.1,7.4-0.1,8.6-0.4c0.4-0.1,1.4-0.3,2.2-0.4
			c0.8-0.1,1.7-0.2,1.9-0.3c0.2-0.1,1.2-0.3,2.2-0.5c2.7-0.6,10.3-3,12.7-4c0.4-0.2,1.6-0.7,2.6-1c1.7-0.7,3.7-1.5,6.5-2.8
			c1.6-0.7,4.6-2.6,5.8-3.5c0.4-0.3,1.3-0.9,2.1-1.3c0.8-0.4,1.9-1.1,2.6-1.6c0.7-0.5,2.2-1.6,3.3-2.3c3.5-2.5,4.8-3.4,6.6-4.8
			c0.9-0.7,2.6-2.1,3.8-3c3.3-2.6,3.5-2.8,6.5-5.7c5.8-5.8,7.1-7.2,8.7-9.3c0.3-0.5,2.1-2.8,3.9-5.3c3.3-4.4,3.8-5,6.4-9
			c2.3-3.5,4.8-7.9,5.5-9.4c0.3-0.8,0.4-1.6,0.2-2.2l-0.2-0.3C288.5,186.8,287.1,185.5,286.6,185.4z M130.6,259.1
			c0.4-0.4,0.5-0.4,1.5-0.7c1-0.3,1.3-0.3,1.5,0.1c0.1,0.2,0,0.4-0.3,0.8c-0.5,0.6-1.8,1.3-2.3,1.3
			C130.1,260.5,129.9,259.8,130.6,259.1z M132.6,262.1c0.2-0.4,1.8-1.2,3.4-1.6c3.2-0.8,3.6-0.8,3.6-0.4s-0.5,0.7-2.7,1.5
			c-2.5,0.9-4,1.2-4.3,1C132.5,262.4,132.5,262.3,132.6,262.1z M163.8,266.9c0.2,0.9-1.1,1.8-5.3,3.3c-1.5,0.6-3.5,1.4-4.5,1.8
			c-1,0.4-2.7,1.1-3.9,1.5c-1.3,0.5-2.9,1.1-3.9,1.6c-1.5,0.7-1.7,0.8-2,0.7c-0.5-0.1-1-0.5-1.9-1.4c-0.9-0.9-2.4-2.4-3.6-3.6
			c-1.5-1.4-3.3-3.4-3.7-3.9c-0.2-0.3-0.3-0.6-0.3-0.8c0-0.2,0.2-0.4,0.8-0.7c0.4-0.2,1.1-0.5,1.6-0.7c0.5-0.1,1.6-0.6,2.5-1
			c2.3-1,3.4-1.4,5.4-2c1.7-0.5,2.3-0.6,2.2-0.1c-0.1,0.2-0.3,0.4-2.1,1.3c-2,1-2.1,1-2.2,1.4c-0.3,0.6,0,0.9,0.9,1.1
			c1.5,0.4,1.5,0.4,6.2-1.1c2.3-0.8,5.8-1.7,7.4-1.9c2.5-0.4,1.4,0.8-1.7,1.9c-0.8,0.3-2.1,0.8-2.8,1.1c-0.7,0.3-2.2,0.9-3.2,1.4
			c-1.2,0.5-1.9,0.9-2.1,1c-0.6,0.6,0.1,1.4,1.1,1.4c0.2,0,1.7-0.5,3.5-1.2c4.7-1.8,5.7-2.1,7.4-2.6c2-0.6,2.4-0.6,3.4-0.1
			C163.3,266,163.8,266.5,163.8,266.9z"/>
		<path class="st3" d="M94.9,187.2c0.9-0.5,1-0.6,1.6-1.4c0.7-1,1.1-2.2,1.1-3.2c0-0.5-0.2-1-0.6-2c-0.8-1.9-1.4-2.7-2.6-3.6
			c-0.9-0.7-1.4-0.8-2.4-0.8c-1.1,0-2,1-2.2,2.3c0,0.3,0,1.1,0.1,1.8c0.1,0.8,0.1,1.5,0,1.9s-0.1,0.8,0,1c0.2,0.6,2.4,4.1,2.8,4.4
			C93.1,188,93.7,187.9,94.9,187.2z"/>
		<path class="st5" d="M168,261.2c0.7,0,1.3-0.3,2.5-1.2c2.2-1.7,3.4-3.2,3.3-4.2c0-0.4-0.1-0.5-0.4-0.7c-0.3-0.2-0.5-0.3-0.8-0.2
			c-0.2,0.1-0.6,0.2-0.9,0.3c-0.7,0.2-1.9,1-3.1,2c-0.6,0.5-1.3,1.1-1.6,1.3C165.5,259.5,166.1,261.1,168,261.2z"/>
		<path class="st6" d="M66.6,81.2c0.6,1.7,1.4,3.5,3.6,8.4c0.8,1.7,1.8,3.8,2.2,4.7c0.8,1.7,2,3.9,3.2,5.9c0.4,0.6,1,1.6,1.4,2.2
			c0.4,0.7,1.3,1.9,1.9,2.7c0.6,0.8,1.3,1.8,1.6,2.3c0.9,1.4,1,1.4,2.8,0.7c1.3-0.5,1.7-0.8,1.9-1.3c0.1-0.5,0.1-0.6-1.2-2.6
			c-1-1.5-2.6-4.6-3.1-6.1c-0.5-1.3-3.1-6.8-5.7-11.5c-1.4-2.6-2.6-5.2-2.9-5.9c-0.4-0.9-0.6-1.4-1.1-2.1c-0.6-0.8-0.7-1-1-2
			c-0.2-0.6-0.4-1.7-0.5-2.5c-0.2-1.7-0.3-2.1-0.8-2.2c-0.2,0-0.4,0-0.6,0c-0.1,0-0.8,0.3-1.4,0.7c-1.4,0.8-1.8,1.1-2,2.5
			C64.9,76.4,65.1,77.1,66.6,81.2z"/>
		<path class="st3" d="M144.8,215.9c1.7-0.4,1.8-0.4,4.2-1.5c2.7-1.3,4.9-2.5,7.4-4.2c1.7-1.2,2-1.5,3.3-2.9c1-1.1,1.3-1.4,2.6-3.5
			c1.3-2,1.4-2.4,1.9-5.6c0.4-2.8,0.2-3.5-1.3-5.9c-0.6-0.8-1.5-2.1-2.1-2.9c-2.6-3.4-2.4-2.9-2.5-3.9c-0.1-0.5-0.1-1.5-0.1-2.2
			c0.1-1.4,0-3.8-0.2-4.8c-0.1-0.4-0.2-1.2-0.2-1.9c-0.1-1.2-0.5-3.3-1-5.7c-0.4-1.7-0.5-2.2-0.4-3.2c0-1.2,0.3-1.8,1.2-3
			c1.5-2,3-3.1,4.7-3.7c1.9-0.6,1.9-0.6,2-1.1l0.1-0.5l-1.1-2.2c-0.6-1.2-1.4-3-1.8-4.1c-1.4-3.5-1.8-4.5-4.3-10.6
			c-0.4-1-1-2.3-1.3-3c-0.7-1.8-2.2-5.7-3.3-8.8c-0.5-1.5-1.1-3-1.2-3.2c-0.1-0.3-0.6-1.4-0.9-2.5c-0.4-1.1-1.2-3.6-1.9-5.6
			c-1.2-3.2-1.6-4.7-2.6-8.1c-0.2-0.8-0.6-2-0.9-2.7c-0.3-0.7-0.6-1.8-0.7-2.2c-0.1-0.5-0.4-1.6-0.7-2.4c-0.5-1.8-1-3.7-1.4-5
			c-0.7-2.6-1-3.4-1.5-3.1c-0.3,0.1-0.4,0.5-0.6,2.2c-0.3,2.4-0.5,2.9-0.9,3.6c-0.5,0.7-0.8,0.8-1.5,0.5c-0.4-0.2-1.5-1-1.6-1.2
			c-0.1-0.1-2.8-2.6-4-3.6c-1.4-1.2-4.1-3.2-6.6-4.9c-1-0.7-2.5-1.7-3.2-2.2c-5.3-3.6-6-4.1-9-5.8c-2.7-1.5-3.5-1.8-5.8-2.7
			c-1.9-0.7-3.4-1.1-5.9-1.4c-0.8-0.1-1.7-0.3-2.2-0.3c-1.6-0.3-5.4-0.6-5.7-0.4c0,0-0.5,0.1-1.1,0.1c-3.7,0.3-7.6,0.8-9.9,1.4
			c-0.9,0.2-2.6,0.9-3.9,1.5c-0.3,0.1-0.6,0.3-0.7,0.3c-0.4,0.2-0.9,0.7-1,1.2c-0.1,0.5,0,0.8,0.4,1c0.3,0.1,0.5,0.1,1.7-0.4
			c1.5-0.6,2.9-1,3.3-1c0.1,0,0.3,0.1,0.3,0.2c0.1,0.2-0.2,0.3-2.5,1.6l-2.6,1.4L77.6,87c-0.1,0.5,0,0.8,0.4,1
			c0.3,0.2,0.5,0.1,2-0.5c1.2-0.5,1.6-0.6,1.7-0.3c0.1,0.3-0.1,0.6-1.2,1.3c-1.6,1-1.9,1.4-1.4,2.3c0.3,0.5,0.6,0.6,1.4,0.4
			c0.6-0.1,0.7-0.1,0.8,0.1c0.1,0.2,0.1,0.4-0.4,0.9c-0.9,1.2-0.6,1.9,0.7,1.9c0.9,0,1.1,0.3,0.5,1c-0.6,0.9-0.6,1,0.5,3.3
			c0.5,1.1,1.1,2.2,1.2,2.3c0.3,0.4,0.9,0.6,1.9,0.6c2.9,0,5.3,0.7,6.5,1.9c0.4,0.5,0.7,0.9,2,3.6c2.3,4.6,3.2,6.9,3.5,8.6
			c0.3,1.7,0,3.1-0.7,3.8c-0.3,0.2-0.8,0.5-1.6,0.9c-1.3,0.6-1.7,1-1.6,1.5c0,0.1,0.5,1,0.9,1.8c0.5,0.9,3.4,6.2,6.5,11.9
			c3,5.7,5.7,10.4,5.8,10.4c0.2,0.1,6.9,12.8,9.6,18.2c1.4,2.8,3.5,6.9,4.6,8.9c1.1,2,2.5,4.7,3,5.9c0.5,1.2,1.9,3.9,2.9,6.2
			c1.1,2.2,2.5,5.2,3.2,6.7c1.2,2.4,3.4,6.9,4.7,9.2c0.5,0.9,0.6,1,1,1.1c0.2,0.1,0.6,0.1,0.8,0c1.3-0.4,1.4-0.1,0.3,1.1
			c-0.2,0.2-0.2,0.4-0.1,0.6c0.2,0.4,0.5,0.4,1.4,0c0.8-0.3,1.1-0.4,1.2-0.1c0.1,0.3-0.1,0.6-0.9,1.2s-1,0.9-0.8,1.4
			c0.3,0.6,1.1,0.5,3.6-0.5c2-0.7,2.5-0.9,2.6-0.6c0,0.1,0,0.3-0.1,0.5c-0.2,0.3-0.4,0.4-1.9,1.1c-1.9,0.9-2.2,1.2-2.1,1.8
			c0.2,0.7,0.8,0.7,3.1,0c2.8-0.9,3.5-1.1,3.7-0.8c0.2,0.3-0.6,0.9-1.9,1.4c-1.3,0.5-3.1,1.6-3.3,2.1c-0.2,0.5,0,1,0.5,1.2
			c0.7,0.3,1.8-0.1,5.8-1.8c0.9-0.4,1.7-0.7,1.7-0.7c0.1,0,0.8-0.4,1.7-1c1.7-1,2.9-2,4.6-3.5c0.6-0.5,1.3-1.2,1.5-1.4
			c0.3-0.2,0.8-0.8,1.2-1.3c0.8-1,1.1-1.1,1.2-0.9c0.2,0.4-0.9,2-2.7,4c-2.6,2.7-4.4,4-7.6,5.6c-2,0.9-4.7,1.9-6.1,2.3
			c-1.5,0.4-2,0.7-1.9,1.4c0,0.6,0.3,1.1,0.7,1.2C143,216.2,143.8,216.1,144.8,215.9z M153.8,195.9c-0.2,0-0.4-0.3-1.1-1.4
			c-1.2-2-2.4-3.5-4-5.2c-1.5-1.4-2.2-2-2.8-2.1c-0.5-0.1-0.9,0.2-1,0.5c0,0.1,0.1,1.2,0.2,2.4c0.5,3.2,0.5,6.4,0.1,8.8
			c-0.2,1.2-0.3,1.5-0.7,1.3c-0.3-0.1-0.3-0.2-0.8-1.5c-0.4-1.1-0.8-2.1-2-4.3c-1.3-2.5-1.7-3.1-2.9-4.8c-0.8-1.1-1.6-2.3-1.9-2.7
			c-0.3-0.4-1-1.4-1.6-2.1c-2-2.5-3.6-4.6-4.1-5.5c-1.3-2.4-1.7-5.7-1.1-8.4c0.3-1.1,0.2-1.9-0.1-2.4c-0.1-0.2-0.9-0.7-1.9-1.2
			c-2.4-1.3-3.8-2.5-4.7-4.2c-0.4-0.7-0.5-0.9-0.4-1.2c0.1-0.4,0.6-0.6,2-1c0.5-0.1,1.2-0.3,1.5-0.5c0.5-0.3,0.6-0.3,0.6-0.8
			c0.1-0.6,0-0.9-0.8-1.6s-1.2-1.2-2.1-2.4c-0.8-1.1-1.4-2.5-1.6-3.6c-0.2-1.5,0.1-1.8,1.3-1.1c2.1,1.1,4.5,1,6.9-0.2
			c1.5-0.8,2.2-1.7,2-2.5c-0.1-0.3-0.9-1.1-2-1.9c-1.3-0.9-2.6-2.1-3.6-3.1c-1-1.1-1.2-1.3-1.1-1.7c0.1-0.4,0.4-0.4,1.5-0.1
			c3,0.7,5.7,0.5,7.6-0.6c1.4-0.8,1.8-1.3,1.4-2c-0.1-0.3-0.4-0.4-1.9-1.1c-1.8-0.8-3.2-1.7-4.6-3.1c-0.6-0.6-1.2-1.4-1.2-1.8
			c-0.1-0.4,0.3-0.7,1.5-0.9c2-0.5,3-1.2,2.8-1.9c-0.1-0.4-0.4-0.6-1.9-1c-2.3-0.7-2.5-1.2-0.9-2.5c0.4-0.3,1.2-0.9,1.5-1.4
			c0.9-1.2,1.5-2.2,1.8-2.8c0-0.2,0-0.4,0.1-0.9c0.2-0.9,0.1-3.2-0.2-4.3c-0.1-0.4-0.5-1.2-1-2.2l-0.8-1.5l-0.7-0.5
			c-1.1-0.8-2.4-1.2-4-1.1c-1.1,0-1.4,0.1-2.1,0.4c-1.1,0.5-1.5,1-1.9,1.9c-0.4,1.2-0.3,2.3,0.6,4c0.7,1.2,1.1,1.7,2,2.2
			c1.4,0.7,1.6,0.9,1.4,1.4c-0.2,0.6-1.1,1.2-2.4,1.7c-1.6,0.6-1.8,0.7-2,1.2c-0.1,0.5,0,0.9,0.6,2.6c0.3,0.9,0.8,3.6,0.8,4.9
			c0,0.6-0.3,0.9-0.6,0.8c-0.1,0-0.7-0.6-1.3-1.2c-1.1-1.2-1.8-1.6-2.3-1.6c-0.7-0.1-0.9,0.7-0.4,1.5c0.4,0.7,1.5,3.8,1.7,4.6
			c0.3,1.1,0.4,3.7,0.3,4.8c-0.1,0.5-0.2,1.4-0.3,1.9c-0.4,1.7-1.7,4.4-2.2,4.7c-0.1,0-0.3,0-0.4-0.1c-0.2-0.1-0.2-0.4-0.2-1.3
			c0-0.6-0.1-1.3-0.1-1.4l0,0c-0.3-1.1-0.8-3.3-1.5-5c-0.5-1.3-1.4-2.7-2.9-4.9c-0.6-0.9-1.4-2-1.8-2.6s-1.1-1.8-1.6-2.8
			c-0.8-1.5-1-2-1.5-3.5c-0.3-0.9-0.6-2.1-0.7-2.5c-0.2-1.2-0.2-3.2,0-5c0.1-1.5,0.1-1.7-0.1-2.1s-0.5-0.7-1-1.1
			c-2.2-1.6-3.7-3.2-5.2-5.5c-1.8-2.8-2.6-5.6-3.5-10.9c-0.2-1.5-0.5-3-0.5-3.3l-0.2-1c-0.1-0.2-0.4-0.9-0.7-1.6
			c-0.8-1.7-1.3-2.4-2.9-3.9c-0.5-0.5-1-1-1-1.1c0-0.3,0.5-0.5,1.3-0.3c2.2,0.4,4.7,2.1,6.7,4.3c0.6,0.7,0.9,1.2,1.7,2.7
			c1.1,2,1.3,2.2,1.9,2.2c0.3,0,0.4-0.1,0.7-0.5c0.3-0.5,0.5-1.1,0.9-3.1c0.1-0.3,0.2-0.7,0.3-0.7c0.5-0.3,0.9,0.3,3.3,4.6
			c0.8,1.4,1.1,1.7,1.8,1.7c0.4,0,0.6-0.1,1.2-0.5c0.8-0.5,2.5-1.3,3.3-1.5c0.7-0.2,1.5-0.1,1.7,0.1c0.4,0.4,0.3,0.8-0.3,2.3
			c-1.1,2.7-1.5,4.8-1.1,5.6c0.1,0.1,0.3,0.3,0.5,0.4c0.4,0.1,0.5,0.1,1.8-0.4c1.2-0.5,1.5-0.6,2.8-0.7c1.7-0.1,2.8-0.1,4.2,0.3
			c1.3,0.3,2.5,0.5,3.1,0.3c0.5-0.2,1.7-1.1,2.3-1.8c0.8-0.9,1.3-1,1.8-0.3c0.3,0.4,0.7,1.5,0.9,2.7c0.2,1.1,0.5,1.7,1.2,2.3
			c0.9,0.8,2.2,2.3,2.8,3.1c1.2,1.8,2.7,6.5,3,9.4c0.1,1.2,0.4,1.8,0.9,1.9c0.2,0.1,0.5,0.1,0.6,0c0.1-0.1,0.4-0.2,0.7-0.3
			c0.9-0.4,1.3-0.1,1.4,1.4c0.1,1.8-0.1,4.1-0.7,6.3c-0.4,1.5-0.3,2,0.3,2.2c0.5,0.1,1-0.3,2-1.3c1.2-1.3,1.5-1.2,2.1,1
			c0.3,1,0.4,1.7,0.4,2.8c0,1.5-0.2,2.9-0.5,3.9c-0.1,0.3-0.2,0.9-0.3,1.2c-0.1,1,0.1,1.3,1.5,2.1c2.1,1.3,3.3,2.5,4.6,4.6
			c0.9,1.6,1.1,2.2,0.8,2.5c-0.2,0.2-0.4,0.2-1.3-0.4c-1.1-0.7-3-1.3-3.9-1.2c-1.3,0.1-1.6,0.6-1.4,2.5c0.2,1.4,0.1,3.2-0.2,4.2
			c-0.2,0.6-0.3,0.8-0.5,0.9c-0.4,0.2-0.7,0.1-1.9-0.8c-2.1-1.5-4.5-1.7-6-0.5c-0.3,0.2-0.7,0.7-1,1.2c-1.5,2.2-0.9,5.6,1.4,7.7
			c1.9,1.7,3.5,2,6.7,1.3c1.4-0.3,1.5-0.4,3-1.3c0.9-0.5,1.8-1.1,2.1-1.3c0.6-0.5,0.9-0.6,1.1-0.2c0.2,0.4-0.1,1.2-1.1,2.6
			c-1.4,2-2.6,3-4.6,3.8c-2.8,1.2-2.9,1.2-3,1.6c-0.1,0.3-0.1,0.5,0.1,0.8c0.1,0.2,0.5,0.6,0.8,0.8c0.8,0.6,3.8,1.6,5.5,1.7
			c1.3,0.1,1.6,0.3,1.7,0.8c0.1,0.6-1.6,1.9-3.8,2.9c-0.8,0.3-1.5,0.7-1.6,0.8c-0.2,0.3-0.3,0.7-0.3,1c0,0.2,1,1.4,2.3,2.9
			c0.1,0.1,0.6,0.9,1.2,1.8c1.3,1.9,2.5,4.5,3.4,7.1c0.6,1.8,0.8,2.5,1.1,4.3C154.4,195.6,154.3,196,153.8,195.9z"/>
		<path class="st2" d="M67.4,143c1.4-0.5,2-0.4,3.2,0.5c0.3,0.2,0.8,0.5,1.1,0.7c1.1,0.6,2,1.9,2.4,3.7c0.1,0.4,0.2,0.8,0.3,1
			c0.4,0.8,1.1,0.3,1.6-1c0.4-1,0.7-1.3,1-1c0.1,0.1,0.6,0.8,1,1.5c0.8,1.4,1.7,2.5,2,2.7c0.4,0.2,0.7-0.2,0.8-0.9
			c0.1-1,0.2-1.4,0.5-1.5c0.4-0.2,0.8,0.1,1.7,1.3c3.3,4.7,7.8,9,8.1,7.8c0.1-0.2-1.6-2.9-2.6-4c-1.3-1.5-2-2.7-2.6-4.4
			c-0.9-2.3-3.5-7.3-4.3-8.3c-1.1-1.3-2.4-2.5-4.5-3.9c-2.3-1.7-2.4-1.7-2.8-3.9c-0.8-4-1.3-5.6-2.3-6.9c-0.3-0.4-1-1.4-1.5-2.3
			c-1.2-1.9-1.7-2.6-2.6-3.4c-1-0.9-2-2.2-3.1-3.8c-0.5-0.8-0.9-1.4-1.1-1.5c-0.5-0.3-0.9,0.2-0.8,0.9c0,0.2,0.8,2.7,1.2,3.6
			c0.1,0.3,0.5,1,0.9,1.7c1,1.5,1.2,2.2,0.7,2.4c-0.1,0-0.5,0-0.9-0.1c-0.9-0.2-1.2-0.1-1.4,0.4c-0.1,0.3,0,0.4,0.9,2.1
			c1.1,2,1.2,2.2,0.9,2.6c-0.1,0.1-0.4,0.3-0.8,0.4c-1.7,0.5-1.8,1.6-0.4,2.4c1.8,1,4.3,3,4.4,3.5c0,0.3-0.3,0.6-0.8,0.7
			c-0.7,0.2-1.9,0.9-2.5,1.3c-0.4,0.3-0.5,0.6-0.8,1.3c-0.4,1.5-0.3,1.9,0.8,3.4C66,143.4,66.1,143.5,67.4,143z"/>
		<path class="st2" d="M98.1,96.5c0.8,3.8,2.2,7.6,3.8,10.6c1.4,2.5,1.9,3,5.6,5.9c0.8,0.6,1.6,1.3,1.7,1.4c0.1,0.1,0.1,0.8,0,1.6
			c-0.4,4.2-0.4,4.7-0.1,7.3c0.1,0.4,0.3,1.4,0.5,2.1c0.6,1.9,2,4.4,4,7.1c2.2,2.9,3.2,5,3.9,8.1c0.2,0.8,0.4,2.5,0.6,3.7
			c0.1,0,0.2,0,0.3,0c0.2,0,0.5,0,0.7-0.1c0.7-0.4,1.1-3.3,0.7-5.6c-0.1-0.5-0.4-1.9-0.7-3.2c-0.5-2.1-0.8-3.2-1.7-5.6
			c-0.3-0.7-0.3-0.9-0.2-1.2c0.3-0.8,1.4-0.8,2.9,0c0.5,0.2,1.1,0.4,1.3,0.4c0.3,0,0.3-0.1,0.4-0.4c0.1-0.6-0.4-2.1-1.4-4.1
			c-0.5-1-0.8-1.8-0.8-1.9c0-0.5,0.4-0.6,1.7-0.5c1.7,0.2,2.5,0.1,3-0.2c0.9-0.5,0.8-1.4-0.4-2.3c-1-0.8-1.4-1.5-1.7-2.5
			c-0.5-1.7-0.3-4,0.6-5.3c0.3-0.5,0.6-0.7,1.7-1.3c1.5-0.9,2.1-1,3.3-0.9c2.3,0.3,6,4.1,6.6,7.2c0.4,1.6,0.2,4-0.3,4.9
			c-0.1,0.2-0.1,0.2-0.2,0.3c-0.2,0.5-0.5,1.1-1,2c-0.1,0.1,0,0.2,0,0.2c-0.1,0-0.3,0.6-0.5,1.2c-0.7,1.9-0.4,2.4,1.7,3.2
			c0.7,0.3,1.3,0.6,1.3,0.7c0.3,0.6-0.9,1.8-3,2.9c-1.3,0.7-1.4,0.8-1.5,1.1c-0.2,0.7,0.4,1.3,1.9,1.9c0.8,0.3,1.5,0.7,4,2.1
			c1.3,0.8,1.6,0.9,1.7,1.3c0.1,0.3,0.1,0.5-0.2,1c-0.4,0.8-1.8,2.2-2.7,2.7c-0.9,0.6-2.2,0.9-3.3,0.8c-1.1-0.1-1.6,0.2-1.7,0.7
			c-0.1,0.5,0.1,0.8,1.1,1.6c0.5,0.5,1.2,0.9,1.9,1.3c1.5,0.8,1.6,1,0.8,2c-0.9,1.2-1.7,1.8-3.4,2.8c-1.5,0.8-1.7,1-2.6,1.2
			c-0.8,0.2-1.2,0.2-1.8,0.1c-1.9-0.3-2.1-0.3-2.2,0.3c-0.1,0.3,0,0.5,0.6,1.6c0.7,1.3,1.5,2.3,2.7,3.5c0.9,0.9,0.9,1.2,0.4,1.9
			c-0.3,0.5-0.5,0.6-1.7,1.2c-1.1,0.6-1.3,0.8-1.4,1c-0.3,0.9,1.7,2.7,4.5,4.2c1.6,0.8,1.8,1,2,1.5c0.1,0.2,0.1,1.2,0,2.2
			c-0.3,4.8-0.3,5.4,0.8,7.7c0.8,1.6,1.5,2.6,2.9,4.2c2.7,3,4.1,5.2,5.5,7.9c0.5,1.1,1,2.3,1.1,2.6c0.2,0.5,0.3,0.7,0.5,0.9
			c0.3,0.2,0.8,0.1,1-0.2c0.2-0.5,0-5.8-0.2-6.7c-0.1-0.3-0.3-1.1-0.5-1.8c-0.2-1-0.3-1.3-0.1-1.5c0.2-0.2,0.2-0.2,0.7,0
			c0.7,0.3,2.1,1.5,4,3.3c1.9,1.8,2.2,2.1,2.5,2c0.8-0.2,0.7-0.9-0.4-3.4c-1.3-2.9-1.8-3.7-2.9-5.2c-1.5-1.9-2.4-2.9-3.6-3.9
			c-1.2-1-1.5-1.4-1.2-1.6c0.2-0.2,1.5-0.3,2.9-0.2c1.3,0.1,2.8-0.2,3.2-0.5c0.4-0.3,0.5-0.8,0.2-1.1c-0.1-0.1-0.8-0.4-1.6-0.6
			c-0.8-0.2-1.6-0.5-1.9-0.6c-0.3-0.2-0.7-0.4-1-0.5c-0.6-0.3-2.1-1.7-2.3-2.2c-0.4-0.7-0.1-0.9,1.5-1.3c0.8-0.2,1.3-0.5,3.2-1.5
			c2.4-1.3,3.1-1.8,3.2-2.3c0.1-0.6-0.4-0.6-1.6-0.1c-1.6,0.7-4.3,1.1-5.6,0.8c-1.1-0.3-3-1.5-4-2.6c-0.6-0.7-1.4-2.2-1.6-3.3
			c-0.5-1.9-0.2-4.2,0.6-5.4c0.7-0.9,2.7-2,4-2c1.1-0.1,2.5,0.2,3.5,0.8c1.4,0.7,2,0.6,2.3-0.4c0.1-0.4,0.1-3.8,0-5.2
			c-0.1-0.6,0.2-1,0.8-1.1c0.6-0.2,1-0.1,2.2,0.1c0.6,0.1,1.2,0.2,1.4,0.2c0.4-0.1,0.5-0.5,0.3-1c-0.4-0.7-2.1-1.8-3.9-2.6
			c-0.4-0.2-0.9-0.4-1.1-0.6c-0.3-0.2-0.4-0.3-0.4-0.8c0-0.3,0.1-1.1,0.3-1.7c0.4-1.4,0.8-3.5,0.9-4.8c0.1-1.1-0.1-1.7-0.6-1.8
			c-0.3-0.1-0.5,0-2,0.8c-1.7,0.9-2.4,1.1-3.2,1c-0.7-0.1-0.7-0.3,0.4-4.2c1.3-4.6,1.4-5.3,1.1-5.9c-0.4-0.7-0.8-0.7-1.9-0.1
			c-0.7,0.4-0.9,0.4-1.2,0.3c-0.4-0.1-0.5-0.5-0.4-1.5c0-0.9-0.1-2.9-0.3-3.9c-0.3-1.7-1.7-5.9-2.5-7.5c-0.6-1.2-1.6-2.3-2.8-3.2
			c-1-0.8-1.2-1.2-1.4-2.5c-0.2-1.7-0.4-1.8-2-0.9c-1,0.5-1.3,0.6-2.3,0.8c-0.7,0.1-1.5,0.1-1.9,0.1c-1.6-0.2-2-0.3-2.4-0.4
			c-0.8-0.2-2-0.2-2.7-0.1c-1,0.2-3.4,1.4-4.4,2.3c-0.8,0.7-1,0.8-1.3,0.4c-0.3-0.3-0.4-1.1-0.4-2.6c0-1.7,0.2-2.8,0.5-4
			c0.3-1.1,0.1-1.6-0.5-1.8c-0.6-0.2-1.1,0-2.5,1l-1.2,0.9l-0.4-0.1l-0.4-0.1l-1.2-2.2c-0.6-1.2-1.2-2.2-1.3-2.3
			c-0.2-0.2-0.7-0.2-1,0.1c-0.2,0.2-0.8,1.1-1.2,1.9c-0.3,0.6-0.7,1-1,0.8c-0.1,0-0.5-0.6-0.9-1.3c-1.8-2.9-2.8-4.3-4.4-6
			c-1.3-1.2-2.1-0.9-1.7,0.7c0.1,0.4,0.2,1.4,0.2,1.8l0.3,1C97.8,95.5,98,96.1,98.1,96.5z"/>
		<path class="st2" d="M112.5,190.4c-0.5-1.4-0.7-2-1.7-3.8c-1.1-2.1-1.1-2.2-1.9-2.9c-0.4-0.4-1.7-1.5-2.8-2.3
			c-2.3-1.7-2.3-1.7-2.3-3.4c0-1.2-0.2-2.5-0.6-3.9c-0.4-1.6-0.7-1.8-2.2-1.2c-1.2,0.5-1.8,0.3-2.1-0.5c-0.1-0.2-0.1-0.3,0-0.4
			c-0.4-0.9-1-2.5-1.3-3.1c-0.7-1.5-0.8-1.6-1.1-1.7c-0.2-0.1-0.5-0.1-0.6-0.1c-0.1,0.1-0.4,0.5-0.5,1c-0.4,1.1-0.8,1.5-2,2.1
			c-1.2,0.6-2.7,0.9-3.4,0.7c-0.6-0.2-0.8-0.6-0.8-2c0-0.6-0.2-1.4-0.3-1.9c-0.2-0.7-0.3-0.8-0.6-1c-0.4-0.2-0.8,0-1.3,0.8
			c-0.4,0.7-0.5,0.8-1.3,1.2c-0.8,0.4-0.9,0.4-2,0.4c-1,0-1.1,0-1.3,0.3c-0.1,0.1-0.2,0.4-0.2,0.6c0,0.4,3.2,6.4,4.7,9
			c1,1.7,1,1.7,1.4,1.8c0.7,0.1,0.8-0.2,0.9-1.4c0-0.8,0.4-2.1,0.7-2.6c0.1-0.1,0.4-0.4,0.6-0.6c1.1-0.9,2.6-0.7,4.1,0.6
			c1.5,1.3,2.5,2.6,2.9,3.9c0.4,1.2,0.7,3.8,0.4,4.5c-0.2,0.7-0.9,1.7-1.7,2.4c-0.3,0.3-0.6,0.6-0.7,0.8c-0.2,0.4,0,0.7,0.6,0.7
			s2.9-1.2,3.8-1.9c0.9-0.8,1.3-0.7,1.7,0.8c0.4,1.5,0.5,2.5,0.3,3.9c-0.2,1.4-0.1,1.8,0.4,2c0.6,0.2,1-0.3,1.8-2
			c0.7-1.5,1.1-1.5,1.5,0.2c0.1,0.5,0.4,1.3,0.5,1.9c0.7,2.3,1.7,4.4,3.8,7.7c0.9,1.4,1.3,1.8,1.6,1.8c0.7-0.1,0.7-0.5,0-2.3
			c-0.7-2.2-1.2-4.3-1-4.7c0.1-0.2,0.7,0,1,0.5c0.9,1.3,2.4,2.7,4,4c1.1,0.9,1.4,1,1.8,0.7c0.1-0.1,0.1-0.1,0.2-0.1
			c-0.6-0.9-1.7-2.5-2.3-3.5C114.5,195.4,113.3,192.7,112.5,190.4z"/>
		<path class="st4" d="M88.4,70.1c0.2,0,1-0.1,1.9-0.1c1.9-0.1,2.5-0.3,2.5-0.8c0-0.2,0-0.7-0.1-1.2s-0.2-1.2-0.2-1.7
			c0-1-0.1-1.2-0.6-1.3c-0.5-0.1-1.2,0.3-3,1.6c-2,1.6-2.4,2.2-2,3c0.2,0.3,0.3,0.4,0.7,0.5C87.9,70.1,88.2,70.2,88.4,70.1z"/>
		<path class="st3" d="M81.4,166.6c0.3-0.2,0.4-0.7,0.2-2.1c-0.1-0.6-0.1-1.6-0.1-2.2c0-1.3-0.1-1.9-0.4-2.2
			c-0.3-0.2-0.5-0.2-1.3,0.1c-1.4,0.6-1.7,0.8-1.8,1.4c0,0.3,0.1,0.5,1.3,2.6C80.7,166.6,80.9,166.9,81.4,166.6z"/>
		<path class="st4" d="M102.7,69.4c0.5,0.1,1.9,0,4.3-0.5c2.1-0.4,3.9-0.6,5.6-0.5c0.6,0,1.8,0.1,2.7,0.1c3.2,0.1,4.7,0.4,7.4,1.4
			c1.3,0.5,2,0.9,2,1.2c0,0.3-0.5,0.3-1.4,0.1c-4.2-1.1-9.1-1.2-12.8-0.3c-1.3,0.3-1.7,0.6-1.4,1.1c0.2,0.4,0.5,0.4,2.2,0.2
			c2.1-0.3,3.7-0.3,5.3,0c0.7,0.1,2.1,0.4,3.1,0.5c3.6,0.5,7.6,1.4,8.3,1.9c0.3,0.2,0.3,0.2,0.2,0.4c-0.1,0.2-0.1,0.2-0.5,0.2
			c-0.2,0-1.8-0.2-3.6-0.5c-3.3-0.5-5.3-0.6-7.2-0.4c-1.5,0.2-2,0.5-1.7,1c0.1,0.2,1,0.4,1.9,0.4c1,0,3.2,0.2,4.5,0.4
			c1.2,0.2,4.6,1.3,6.2,2c1.6,0.8,2.1,1.2,1.7,1.5c-0.1,0-0.7,0-1.3-0.1c-1.2-0.2-3.4-0.2-3.8,0c-0.3,0.2-0.4,0.4-0.2,0.8
			c0.1,0.2,0.5,0.4,1.4,0.7c0.7,0.2,2,0.6,2.8,0.9c3.6,1.3,4.2,1.8,5,3.8c0.3,0.8,0.5,1.2,0.7,1.4c1,0.9,2,0.2,2.5-1.9
			c0.4-1.4,0.3-3.7-0.3-5.5c-0.1-0.4-0.4-1.2-0.5-1.6c-0.4-1.4-1.1-2.4-2.9-4.7c-0.4-0.5-1.2-1.4-1.6-2.1c-0.8-1-1-1.3-2-1.9
			c-2.1-1.5-4.2-2.4-7.4-3.2c-2-0.5-6.5-1-8.1-0.9c-3.5,0.3-7.7,0.8-9.4,1.2c-0.6,0.1-1.3,0.3-1.5,0.5
			C101.8,67.6,101.7,69.1,102.7,69.4z"/>
		<path class="st6" d="M73.5,78.7c0.9,2.1,1.1,2.5,1.5,2.6c0.4,0.1,0.5,0.1,3-0.9c1.1-0.5,2.1-0.8,2.1-0.8c0.1,0,0.5-0.1,1-0.3
			c3.6-1.1,11.1-1.8,15.1-1.5c0.5,0,1.5,0.2,2.2,0.3c5.6,1,7.5,1.5,11.5,3.2c1.3,0.6,2.7,1.2,3,1.3c1.9,0.8,4.4,2.1,6.2,3.2
			c3.5,2.2,8.8,5.8,10.5,7.2c1.4,1.1,3.5,2.8,3.8,3.2c0.1,0.1,1,0.9,1.9,1.8c1.8,1.7,2.2,1.9,2.6,1.4c0.3-0.3,0.5-1.7,0.8-4.4
			c0.1-0.9,0.2-1.9,0.3-2.4c0.3-1.8-0.1-5.4-0.6-6.4c-0.2-0.4-0.5-0.5-0.8-0.4c0,0-0.3,0.6-0.5,1.4c-0.7,2-1.1,2.7-1.9,2.7
			c-0.7,0-1.2-0.3-3.3-1.8c-1.1-0.8-2.6-1.8-3.4-2.3c-0.8-0.5-1.9-1.2-2.4-1.6c-1.5-1-4.2-2.7-5.9-3.6c-0.5-0.3-2.7-1.4-4.8-2.4
			c-4.8-2.3-10.3-4.3-13.1-4.8c-2.9-0.6-4.9-0.9-6.4-0.9c-0.7,0-1.6-0.1-2-0.2c-2-0.3-5.8-0.2-8.3,0.1c-2.7,0.4-6.8,1.3-9.3,2.1
			c-0.9,0.3-1.9,0.6-2.2,0.7c-0.8,0.2-0.9,0.3-1.2,0.7C72.6,76.3,72.7,76.9,73.5,78.7z"/>
		<path class="st6" d="M53.1,126.5c0-0.1-0.1-1.2-0.3-2.5c-0.9-4.7-1.1-6.4-1.2-7.9c-0.1-0.8-0.1-1.7-0.2-1.8
			c-0.1-0.7-0.1-2.6,0.1-3.8c0.1-0.7,0.3-1.9,0.4-2.8c0.3-2.2,0.7-3.8,1.6-6.1c1.4-3.5,1.7-4,3.4-6.3c0.6-0.7,1.3-1.8,1.7-2.3
			c0.4-0.5,1.1-1.4,1.6-1.9c1.2-1.2,1.5-1.6,1.4-2c0-0.2-0.5-1.3-1.1-2.4c-1.1-2.2-1.2-2.4-1.8-2.4c-0.8,0.1-2.8,2.1-4.1,4.3
			c-2.9,4.7-3.5,5.9-4.2,7.6c-0.2,0.5-0.7,1.7-1.1,2.7c-0.9,2-1.3,3.3-1.9,6.5c-0.6,2.9-0.9,5.6-0.8,8.3c0.1,3.1,1.3,7.2,3,9.8
			c0.8,1.3,2.1,3.1,2.4,3.3C52.4,127,53,127,53.1,126.5z"/>
		<path class="st6" d="M67.1,95.7c1.2,2.3,3.4,6.7,4.9,9.7c2.5,4.8,2.8,5.5,3.1,5.8c0.4,0.3,1,0.4,1.6,0c0.2-0.1,0.7-0.3,1.2-0.5
			c1.3-0.4,1.8-0.7,1.9-1.2c0.1-0.3,0.1-0.5-0.3-1.2c-0.2-0.4-0.9-1.5-1.5-2.3c-1.9-2.7-5.3-8.7-7.6-13.4c-2.8-6.1-4-8.8-4.9-11.4
			c-0.2-0.6-0.5-1.5-0.7-2c-0.4-1.2-0.6-2-0.6-3c0-1-0.1-1.3-0.5-1.5c-0.5-0.2-2.3,1-2.9,2c-0.5,0.8-0.9,1.9-0.9,2.7
			c0,1.4,0.3,2.3,2.6,7.3c0.7,1.4,1.4,3.1,1.7,3.7C64.7,90.9,65.9,93.3,67.1,95.7z"/>
	</g>
	<g>
		<g>
			<g>
				<polygon class="st7" points="94.3,128.3 90.1,130.6 96,136.1 				"/>
				<polygon class="st8" points="90.1,130.6 94.3,128.3 88.7,122.7 				"/>
				<polygon class="st9" points="94.3,128.3 96,136.1 95.9,127.4 				"/>
				<polygon class="st10" points="94.3,128.3 95.9,127.4 88.7,122.7 				"/>
				<polygon class="st7" points="90.1,130.6 88.7,122.7 88.6,131.4 				"/>
				<polygon class="st11" points="90.1,130.6 88.6,131.4 96,136.1 				"/>
			</g>
			<g>
				<polygon class="st7" points="112.2,161.6 107.9,163.7 113.5,169.4 				"/>
				<polygon class="st8" points="107.9,163.7 112.2,161.6 106.9,155.9 				"/>
				<polygon class="st9" points="112.2,161.6 113.5,169.4 113.8,160.8 				"/>
				<polygon class="st10" points="112.2,161.6 113.8,160.8 106.9,155.9 				"/>
				<polygon class="st7" points="107.9,163.7 106.9,155.9 106.4,164.4 				"/>
				<polygon class="st11" points="107.9,163.7 106.4,164.4 113.5,169.4 				"/>
			</g>
			<g>
				<polygon class="st7" points="130.2,197 125.9,199 131.2,204.8 				"/>
				<polygon class="st8" points="125.9,199 130.2,197 124.9,191.1 				"/>
				<polygon class="st9" points="130.2,197 131.2,204.8 131.8,196.2 				"/>
				<polygon class="st10" points="130.2,197 131.8,196.2 124.9,191.1 				"/>
				<polygon class="st7" points="125.9,199 124.9,191.1 124.2,199.7 				"/>
				<polygon class="st11" points="125.9,199 124.2,199.7 131.2,204.8 				"/>
			</g>
			<g>
				<polygon class="st12" points="103.2,144.9 99.1,147.4 104.9,152.7 				"/>
				<polygon class="st13" points="99.1,147.4 103.2,144.9 97.6,139.6 				"/>
				<polygon class="st13" points="103.2,144.9 104.9,152.7 104.8,144.1 				"/>
				<polygon class="st14" points="103.2,144.9 104.8,144.1 97.6,139.6 				"/>
				<polygon class="st15" points="99.1,147.4 97.6,139.6 97.6,148.2 				"/>
				<polygon class="st16" points="99.1,147.4 97.6,148.2 104.9,152.7 				"/>
			</g>
			<g>
				<polygon class="st12" points="121,178.2 116.9,180.6 122.7,185.9 				"/>
				<polygon class="st13" points="116.9,180.6 121,178.2 115.3,172.8 				"/>
				<polygon class="st13" points="121,178.2 122.7,185.9 122.6,177.3 				"/>
				<polygon class="st14" points="121,178.2 122.6,177.3 115.3,172.8 				"/>
				<polygon class="st15" points="116.9,180.6 115.3,172.8 115.3,181.4 				"/>
				<polygon class="st16" points="116.9,180.6 115.3,181.4 122.7,185.9 				"/>
			</g>
		</g>
		<g>
			<g>
				<polygon class="st17" points="116.4,217.2 116.8,214.2 112.5,215.5 114.2,217.8 				"/>
				<polygon class="st18" points="113.7,221.9 113.1,219.7 110.4,219.3 111.6,223.6 				"/>
				<polygon class="st19" points="118.4,218.3 119,220.4 121.9,220.8 120.6,216.5 				"/>
				<polygon class="st20" points="115.8,223 113.7,221.9 111.6,223.6 115.4,225.7 				"/>
				<polygon class="st17" points="116.4,217.2 114.2,217.8 113.1,219.7 113.7,221.9 115.8,223 117.8,222.4 119,220.4 118.4,218.3 
									"/>
				<polygon class="st20" points="116.4,217.2 118.4,218.3 120.6,216.5 116.8,214.2 				"/>
				<polygon class="st19" points="119.6,224.6 117.8,222.4 115.8,223 115.4,225.7 				"/>
				<polygon class="st21" points="113.1,219.7 114.2,217.8 112.5,215.5 110.4,219.3 				"/>
				<polygon class="st22" points="119,220.4 117.8,222.4 119.6,224.6 121.9,220.8 				"/>
			</g>
			<g>
				<polygon class="st17" points="134.3,218.2 134.7,215.2 130.5,216.4 132.2,218.8 				"/>
				<polygon class="st18" points="131.7,222.9 131.1,220.7 128.4,220.3 129.6,224.6 				"/>
				<polygon class="st19" points="136.4,219.3 137,221.4 139.9,221.8 138.6,217.6 				"/>
				<polygon class="st20" points="133.7,223.9 131.7,222.9 129.6,224.6 133.5,226.7 				"/>
				<polygon class="st17" points="134.3,218.2 132.2,218.8 131.1,220.7 131.7,222.9 133.7,223.9 135.7,223.3 137,221.4 136.4,219.3 
									"/>
				<polygon class="st20" points="134.3,218.2 136.4,219.3 138.6,217.6 134.7,215.2 				"/>
				<polygon class="st19" points="137.6,225.6 135.7,223.3 133.7,223.9 133.5,226.7 				"/>
				<polygon class="st21" points="131.1,220.7 132.2,218.8 130.5,216.4 128.4,220.3 				"/>
				<polygon class="st22" points="137,221.4 135.7,223.3 137.6,225.6 139.9,221.8 				"/>
			</g>
			<g>
				<polygon class="st17" points="152.3,213.6 152.7,210.7 148.5,211.9 150.2,214.2 				"/>
				<polygon class="st18" points="149.7,218.4 149.1,216.1 146.4,215.7 147.6,220.1 				"/>
				<polygon class="st19" points="154.2,214.7 154.9,216.9 157.8,217.3 156.6,213 				"/>
				<polygon class="st20" points="151.6,219.4 149.7,218.4 147.6,220.1 151.4,222.2 				"/>
				<polygon class="st17" points="152.3,213.6 150.2,214.2 149.1,216.1 149.7,218.4 151.6,219.4 153.7,218.8 154.9,216.9 
					154.2,214.7 				"/>
				<polygon class="st20" points="152.3,213.6 154.2,214.7 156.6,213 152.7,210.7 				"/>
				<polygon class="st19" points="155.5,221.1 153.7,218.8 151.6,219.4 151.4,222.2 				"/>
				<polygon class="st21" points="149.1,216.1 150.2,214.2 148.5,211.9 146.4,215.7 				"/>
				<polygon class="st22" points="154.9,216.9 153.7,218.8 155.5,221.1 157.8,217.3 				"/>
			</g>
			<g>
				<polygon class="st17" points="167.1,200.7 167.4,197.9 163.1,199.1 164.9,201.3 				"/>
				<polygon class="st18" points="164.3,205.4 163.8,203.2 161,202.8 162.2,207.2 				"/>
				<polygon class="st19" points="169,201.8 169.6,203.9 172.5,204.3 171.2,200.1 				"/>
				<polygon class="st20" points="166.3,206.5 164.3,205.4 162.2,207.2 166.1,209.4 				"/>
				<polygon class="st17" points="167.1,200.7 164.9,201.3 163.8,203.2 164.3,205.4 166.3,206.5 168.5,205.9 169.6,203.9 169,201.8 
									"/>
				<polygon class="st20" points="167.1,200.7 169,201.8 171.2,200.1 167.4,197.9 				"/>
				<polygon class="st19" points="170.2,208.2 168.5,205.9 166.3,206.5 166.1,209.4 				"/>
				<polygon class="st21" points="163.8,203.2 164.9,201.3 163.1,199.1 161,202.8 				"/>
				<polygon class="st22" points="169.6,203.9 168.5,205.9 170.2,208.2 172.5,204.3 				"/>
			</g>
			<g>
				<polygon class="st17" points="164.2,182.2 164.6,179.3 160.4,180.5 162.1,182.8 				"/>
				<polygon class="st18" points="161.6,187 161,184.7 158.3,184.3 159.5,188.7 				"/>
				<polygon class="st19" points="166.1,183.3 166.9,185.4 169.7,185.8 168.5,181.6 				"/>
				<polygon class="st20" points="163.6,188 161.6,187 159.5,188.7 163.3,190.8 				"/>
				<polygon class="st17" points="164.2,182.2 162.1,182.8 161,184.7 161.6,187 163.6,188 165.6,187.4 166.9,185.4 166.1,183.3 				
					"/>
				<polygon class="st20" points="164.2,182.2 166.1,183.3 168.5,181.6 164.6,179.3 				"/>
				<polygon class="st19" points="167.5,189.7 165.6,187.4 163.6,188 163.3,190.8 				"/>
				<polygon class="st21" points="161,184.7 162.1,182.8 160.4,180.5 158.3,184.3 				"/>
				<polygon class="st22" points="166.9,185.4 165.6,187.4 167.5,189.7 169.7,185.8 				"/>
			</g>
			<g>
				<polygon class="st17" points="163.4,163.7 163.7,160.8 159.5,162 161.3,164.3 				"/>
				<polygon class="st18" points="160.7,168.5 160.1,166.3 157.4,165.9 158.6,170.2 				"/>
				<polygon class="st19" points="165.3,164.8 165.9,167 168.9,167.4 167.6,163.1 				"/>
				<polygon class="st20" points="162.7,169.6 160.7,168.5 158.6,170.2 162.5,172.3 				"/>
				<polygon class="st17" points="163.4,163.7 161.3,164.3 160.1,166.3 160.7,168.5 162.7,169.6 164.7,169 165.9,167 165.3,164.8 
									"/>
				<polygon class="st20" points="163.4,163.7 165.3,164.8 167.6,163.1 163.7,160.8 				"/>
				<polygon class="st19" points="166.5,171.2 164.7,169 162.7,169.6 162.5,172.3 				"/>
				<polygon class="st21" points="160.1,166.3 161.3,164.3 159.5,162 157.4,165.9 				"/>
				<polygon class="st22" points="165.9,167 164.7,169 166.5,171.2 168.9,167.4 				"/>
			</g>
		</g>
		<g>
			<polygon class="st13" points="69.4,78.6 72.2,75.1 65.7,73.1 66.1,77.6 			"/>
			<polygon class="st14" points="61.9,82.6 62.9,79.2 59.7,76.4 57.7,83.1 			"/>
			<polygon class="st23" points="71,81.7 70,85.1 73.5,88 75.5,81.3 			"/>
			<polygon class="st24" points="63.6,85.7 61.9,82.6 57.7,83.1 61,89.2 			"/>
			<polygon class="st25" points="69.4,78.6 66.1,77.6 62.9,79.2 61.9,82.6 63.6,85.7 66.9,86.6 70,85.1 71,81.7 			"/>
			<polygon class="st12" points="69.4,78.6 71,81.7 75.5,81.3 72.2,75.1 			"/>
			<polygon class="st15" points="67.4,91.1 66.9,86.6 63.6,85.7 61,89.2 			"/>
			<polygon class="st26" points="62.9,79.2 66.1,77.6 65.7,73.1 59.7,76.4 			"/>
			<polygon class="st16" points="70,85.1 66.9,86.6 67.4,91.1 73.5,88 			"/>
		</g>
		<g>
			<g>
				<polygon class="st27" points="125.7,218.3 123.8,219 124.9,220.3 				"/>
				<polygon class="st28" points="127.1,219.9 125.7,218.3 124.9,220.3 				"/>
				<polygon class="st29" points="123,220.6 122.6,222.7 124.3,222.2 				"/>
				<polygon class="st27" points="122.6,222.7 123.6,224.2 124.3,222.2 				"/>
				<polygon class="st28" points="123.8,219 123,220.6 124.9,220.3 				"/>
				<polygon class="st28" points="128.5,221.4 129.1,219.5 127.1,219.9 				"/>
				<polygon class="st30" points="123,220.6 124.3,222.2 124.9,220.3 				"/>
				<polygon class="st31" points="127.6,218.4 125.7,218.3 127.1,219.9 				"/>
				<polygon class="st32" points="127.2,225.6 127.8,223.5 125.6,223.9 				"/>
				<g>
					<polygon class="st33" points="127.2,225.6 128.9,224.8 127.8,223.5 					"/>
					<polygon class="st32" points="129.9,223.1 127.8,223.5 128.9,224.8 					"/>
				</g>
				<polygon class="st27" points="127.8,223.5 128.5,221.4 127.1,219.9 124.9,220.3 124.3,222.2 125.6,223.9 				"/>
				<polygon class="st28" points="124.3,222.2 124.3,222.2 123.6,224.2 125.6,223.9 				"/>
				<polygon class="st34" points="127.8,223.5 129.9,223.1 128.5,221.4 				"/>
				<polygon class="st27" points="129.1,219.5 127.6,218.4 127.1,219.9 				"/>
				<g>
					<polygon class="st33" points="129.9,223.1 130.1,221.2 128.5,221.4 					"/>
					<polygon class="st34" points="129.1,219.5 128.5,221.4 130.1,221.2 					"/>
				</g>
				<g>
					<polygon class="st29" points="125.6,223.9 123.6,224.2 125.2,225.6 125.5,224.2 125.6,224 					"/>
					<polygon class="st34" points="125.2,225.6 127.2,225.6 125.6,223.9 					"/>
				</g>
			</g>
			<g>
				<polygon class="st27" points="142.4,216.5 140.6,217.3 141.7,218.5 				"/>
				<polygon class="st28" points="143.8,218.1 142.4,216.5 141.7,218.5 				"/>
				<polygon class="st29" points="139.7,218.9 139.4,220.9 141,220.5 				"/>
				<polygon class="st27" points="139.4,220.9 140.3,222.5 141,220.5 				"/>
				<polygon class="st28" points="140.6,217.3 139.7,218.9 141.7,218.5 				"/>
				<polygon class="st28" points="145.1,219.7 145.8,217.7 143.8,218.1 				"/>
				<polygon class="st30" points="139.7,218.9 141,220.5 141.7,218.5 				"/>
				<polygon class="st31" points="144.3,216.6 142.4,216.5 143.8,218.1 				"/>
				<polygon class="st32" points="143.8,223.8 144.5,221.8 142.4,222.1 				"/>
				<g>
					<polygon class="st33" points="143.8,223.8 145.6,223.1 144.5,221.8 					"/>
					<polygon class="st32" points="146.7,221.4 144.5,221.8 145.6,223.1 					"/>
				</g>
				<polygon class="st27" points="144.5,221.8 145.1,219.7 143.8,218.1 141.7,218.5 141,220.5 142.4,222.1 				"/>
				<polygon class="st28" points="141,220.5 141,220.5 140.3,222.5 142.4,222.1 				"/>
				<polygon class="st34" points="144.5,221.8 146.7,221.4 145.1,219.7 				"/>
				<polygon class="st27" points="145.8,217.7 144.3,216.6 143.8,218.1 				"/>
				<g>
					<polygon class="st33" points="146.7,221.4 146.9,219.5 145.1,219.7 					"/>
					<polygon class="st34" points="145.8,217.7 145.1,219.7 146.9,219.5 					"/>
				</g>
				<g>
					<polygon class="st29" points="142.4,222.1 140.3,222.5 141.9,223.8 142.3,222.5 142.4,222.3 					"/>
					<polygon class="st34" points="141.9,223.8 143.8,223.8 142.4,222.1 					"/>
				</g>
			</g>
			<g>
				<polygon class="st27" points="160.3,207.7 158.5,208.5 159.6,209.7 				"/>
				<polygon class="st28" points="161.7,209.3 160.3,207.7 159.6,209.7 				"/>
				<polygon class="st29" points="157.6,210.1 157.3,212.1 158.9,211.7 				"/>
				<polygon class="st27" points="157.3,212.1 158.2,213.7 158.9,211.7 				"/>
				<polygon class="st28" points="158.5,208.5 157.6,210.1 159.6,209.7 				"/>
				<polygon class="st28" points="163.1,210.9 163.7,208.9 161.7,209.3 				"/>
				<polygon class="st30" points="157.6,210.1 158.9,211.7 159.6,209.7 				"/>
				<polygon class="st31" points="162.2,207.9 160.3,207.7 161.7,209.3 				"/>
				<polygon class="st32" points="161.7,215 162.4,212.9 160.3,213.3 				"/>
				<g>
					<polygon class="st33" points="161.7,215 163.5,214.3 162.4,212.9 					"/>
					<polygon class="st32" points="164.5,212.5 162.4,212.9 163.5,214.3 					"/>
				</g>
				<polygon class="st27" points="162.4,212.9 163.1,210.9 161.7,209.3 159.6,209.7 158.9,211.7 160.3,213.3 				"/>
				<polygon class="st28" points="158.9,211.7 158.9,211.7 158.2,213.7 160.3,213.3 				"/>
				<polygon class="st34" points="162.4,212.9 164.5,212.5 163.1,210.9 				"/>
				<polygon class="st27" points="163.7,208.9 162.2,207.9 161.7,209.3 				"/>
				<g>
					<polygon class="st33" points="164.5,212.5 164.7,210.6 163.1,210.9 					"/>
					<polygon class="st34" points="163.7,208.9 163.1,210.9 164.7,210.6 					"/>
				</g>
				<g>
					<polygon class="st29" points="160.3,213.3 158.2,213.7 159.8,215 160.2,213.7 160.3,213.5 					"/>
					<polygon class="st34" points="159.8,215 161.7,215 160.3,213.3 					"/>
				</g>
			</g>
			<g>
				<polygon class="st27" points="166.5,190.4 164.7,191.1 165.8,192.3 				"/>
				<polygon class="st28" points="168,191.9 166.5,190.4 165.8,192.3 				"/>
				<polygon class="st29" points="163.9,192.7 163.5,194.7 165.2,194.3 				"/>
				<polygon class="st27" points="163.5,194.7 164.4,196.4 165.2,194.3 				"/>
				<polygon class="st28" points="164.7,191.1 163.9,192.7 165.8,192.3 				"/>
				<polygon class="st28" points="169.4,193.5 170,191.6 168,191.9 				"/>
				<polygon class="st30" points="163.9,192.7 165.2,194.3 165.8,192.3 				"/>
				<polygon class="st31" points="168.5,190.5 166.5,190.4 168,191.9 				"/>
				<polygon class="st32" points="168.1,197.8 168.7,195.6 166.5,195.9 				"/>
				<g>
					<polygon class="st33" points="168.1,197.8 169.8,197 168.7,195.6 					"/>
					<polygon class="st32" points="170.8,195.2 168.7,195.6 169.8,197 					"/>
				</g>
				<polygon class="st27" points="168.7,195.6 169.4,193.5 168,191.9 165.8,192.3 165.2,194.3 166.5,195.9 				"/>
				<polygon class="st28" points="165.2,194.3 165.1,194.3 164.4,196.4 166.5,195.9 				"/>
				<polygon class="st34" points="168.7,195.6 170.8,195.2 169.4,193.5 				"/>
				<polygon class="st27" points="170,191.6 168.5,190.5 168,191.9 				"/>
				<g>
					<polygon class="st33" points="170.8,195.2 171,193.3 169.4,193.5 					"/>
					<polygon class="st34" points="170,191.6 169.4,193.5 171,193.3 					"/>
				</g>
				<g>
					<polygon class="st29" points="166.5,195.9 164.4,196.4 166,197.7 166.4,196.4 166.5,196.1 					"/>
					<polygon class="st34" points="166,197.7 168.1,197.8 166.5,195.9 					"/>
				</g>
			</g>
			<g>
				<polygon class="st27" points="160.5,171.7 158.7,172.4 159.8,173.6 				"/>
				<polygon class="st28" points="161.9,173.2 160.5,171.7 159.8,173.6 				"/>
				<polygon class="st29" points="157.8,174 157.4,176.1 159.1,175.6 				"/>
				<polygon class="st27" points="157.4,176.1 158.4,177.7 159.1,175.6 				"/>
				<polygon class="st28" points="158.7,172.4 157.8,174 159.8,173.6 				"/>
				<polygon class="st28" points="163.2,174.8 163.9,172.9 161.9,173.2 				"/>
				<polygon class="st30" points="157.8,174 159.1,175.6 159.8,173.6 				"/>
				<polygon class="st31" points="162.4,171.8 160.5,171.7 161.9,173.2 				"/>
				<polygon class="st32" points="161.9,179.1 162.6,177 160.5,177.3 				"/>
				<g>
					<polygon class="st33" points="161.9,179.1 163.6,178.3 162.6,177 					"/>
					<polygon class="st32" points="164.7,176.6 162.6,177 163.6,178.3 					"/>
				</g>
				<polygon class="st27" points="162.6,177 163.2,174.8 161.9,173.2 159.8,173.6 159.1,175.6 160.5,177.3 				"/>
				<polygon class="st28" points="159.1,175.6 159.1,175.6 158.4,177.7 160.5,177.3 				"/>
				<polygon class="st34" points="162.6,177 164.7,176.6 163.2,174.8 				"/>
				<polygon class="st27" points="163.9,172.9 162.4,171.8 161.9,173.2 				"/>
				<g>
					<polygon class="st33" points="164.7,176.6 164.9,174.6 163.2,174.8 					"/>
					<polygon class="st34" points="163.9,172.9 163.2,174.8 164.9,174.6 					"/>
				</g>
				<g>
					<polygon class="st29" points="160.5,177.3 158.4,177.7 160,179 160.4,177.7 160.4,177.5 					"/>
					<polygon class="st34" points="160,179 161.9,179.1 160.5,177.3 					"/>
				</g>
			</g>
		</g>
	</g>
	<g>
		<g>
			<polygon class="st35" points="208.1,205.8 198,196 186.4,204.2 196.2,194.1 188.1,182.6 198.3,192.3 209.7,184.2 200,194.3 			
				"/>
			<polygon class="st35" points="200.3,212.5 196.9,209.4 193.2,212 196.4,208.7 193.7,204.9 197,208.1 200.8,205.4 197.7,208.8 			
				"/>
			<polygon class="st35" points="200.9,184.9 198.6,182.6 195.8,184.5 198.2,182.1 196.2,179.5 198.6,181.7 201.3,179.8 199,182.2 
							"/>
		</g>
		<polygon class="st35" points="271.9,179.1 287.4,164.4 270.7,177.7 271.2,160.9 269.2,177.6 254.6,162 267.8,178.8 251.1,178.4 
			267.7,180.3 252.2,194.9 268.9,181.7 268.4,198.5 270.4,181.8 285.1,197.4 271.8,180.6 288.5,181 		"/>
		<polygon class="st35" points="161.2,209.6 171.6,195.4 160.4,209 164.6,191.9 159.5,208.8 156.9,191.4 158.6,208.9 149.5,193.8 
			157.8,209.3 143.5,198.9 157.2,210.1 140.1,205.8 156.9,211 139.5,213.6 157,211.9 142,221 157.5,212.8 147.1,226.9 158.3,213.3 
			154,230.4 159.2,213.6 161.8,231 160.1,213.5 169.2,228.6 160.9,213 175,223.4 161.5,212.3 178.6,216.4 161.8,211.4 179.1,208.7 
			161.6,210.4 176.6,201.3 		"/>
		<polygon class="st35" points="62.4,77.6 72.8,58.3 63,75.3 69.2,56.7 62.5,75.2 65.4,55.7 61.6,77.3 50.1,58.6 59.9,75.7 
			46.9,60.9 59.5,76 44.2,63.8 60.9,77.9 39,78.5 58.7,78.5 39.4,82.4 58.8,79 40.5,86.3 61.1,78.7 50.7,98 60.5,80.9 54.4,99.6 
			61,81.1 58.2,100.6 61.9,79 73.4,97.7 63.5,80.6 76.6,95.4 63.9,80.3 79.4,92.4 62.6,78.4 84.4,77.8 64.9,77.8 84,73.9 64.8,77.3 
			83,70 		"/>
	</g>
</g>
</svg>
