<?xml version="1.0" encoding="UTF-8"?>
<svg xmlns="http://www.w3.org/2000/svg" version="1.1" xmlns:xlink="http://www.w3.org/1999/xlink" viewBox="0 0 320 320">
  <defs>
    <style>
      .cls-1 {
        fill: #fff;
      }

      .cls-2 {
        fill: none;
      }

      .cls-3 {
        clip-path: url(#clippath);
      }
    </style>
    <clipPath id="clippath">
      <rect class="cls-2" x="3" y="3.5" width="314.9" height="312.9"/>
    </clipPath>
  </defs>
  <!-- Generator: Adobe Illustrator 28.7.10, SVG Export Plug-In . SVG Version: 1.2.0 Build 236)  -->
  <g>
    <g id="Capa_1">
      <g class="cls-3">
        <path class="cls-1" d="M161.4,316.4c87-.5,157.1-71,156.6-157.4C317.4,72.6,246.5,3,159.6,3.5,72.6,4,2.5,74.5,3,160.9c.5,86.4,71.4,156,158.4,155.5M159.7,32.8c70.7-.4,128.3,56.1,128.7,126.3.4,70.2-56.6,127.5-127.2,127.9-70.7.4-128.3-56.1-128.7-126.3-.4-70.2,56.5-127.4,127.2-127.9M160.6,186.5c35.7-.2,69.5-9.8,98.3-26.5-4.2,54.6-46.5,97.5-97.9,97.8-51.3.3-94.2-42.2-99-96.7,28.9,16.4,62.9,25.6,98.6,25.4M81.4,111.5c0,16.2,9,29.3,19.9,29.2,10.9,0,19.6-13.3,19.5-29.4,0-16.2-9-29.3-19.9-29.2-10.9,0-19.6,13.3-19.5,29.4M199.5,110.8c0,16.2,9,29.3,19.9,29.2,10.9,0,19.6-13.3,19.5-29.4,0-16.2-9-29.3-19.9-29.2-10.9,0-19.6,13.3-19.5,29.4"/>
      </g>
    </g>
  </g>
</svg>