<?xml version="1.0" encoding="UTF-8"?>
<svg xmlns="http://www.w3.org/2000/svg" version="1.1" xmlns:xlink="http://www.w3.org/1999/xlink" viewBox="0 0 320 320">
  <defs>
    <style>
      .cls-1 {
        fill: #fff;
      }

      .cls-2 {
        fill: none;
      }

      .cls-3 {
        clip-path: url(#clippath);
      }
    </style>
    <clipPath id="clippath">
      <rect class="cls-2" x="2" y="2" width="316.4" height="316.4"/>
    </clipPath>
  </defs>
  <!-- Generator: Adobe Illustrator 28.7.10, SVG Export Plug-In . SVG Version: 1.2.0 Build 236)  -->
  <g>
    <g id="Capa_1">
      <g class="cls-3">
        <path class="cls-1" d="M160.2,318.4c-21.4,0-42.1-4.2-61.6-12.4-18.8-8-35.8-19.4-50.3-33.9-14.5-14.5-25.9-31.4-33.9-50.3-8.3-19.5-12.4-40.2-12.4-61.6s4.2-42.1,12.4-61.6c8-18.8,19.4-35.8,33.9-50.3,14.5-14.5,31.4-25.9,50.3-33.9,19.5-8.3,40.2-12.4,61.6-12.4s42.1,4.2,61.6,12.4c18.8,8,35.8,19.4,50.3,33.9,14.5,14.5,25.9,31.4,33.9,50.3,8.3,19.5,12.4,40.2,12.4,61.6s-4.2,42.1-12.4,61.6c-8,18.8-19.4,35.8-33.9,50.3-14.5,14.5-31.4,25.9-50.3,33.9-19.5,8.3-40.2,12.4-61.6,12.4M160.2,13.8c-19.8,0-38.9,3.9-57,11.5-17.4,7.4-33.1,17.9-46.5,31.4-13.4,13.4-24,29.1-31.4,46.5-7.6,18-11.5,37.2-11.5,57s3.9,38.9,11.5,57c7.4,17.4,17.9,33.1,31.4,46.5,13.4,13.4,29.1,24,46.5,31.4,18,7.6,37.2,11.5,57,11.5s38.9-3.9,57-11.5c17.4-7.4,33.1-17.9,46.5-31.4,13.4-13.4,24-29.1,31.4-46.5,7.6-18,11.5-37.2,11.5-57s-3.9-38.9-11.5-57c-7.4-17.4-17.9-33.1-31.4-46.5-13.4-13.4-29.1-24-46.5-31.4-18-7.6-37.2-11.5-57-11.5"/>
        <path class="cls-1" d="M175.1,40.9c-3.3,3.8-8.6,5-13.4,6.4-4.8,1.5-10,3.9-11.5,8.7-.2.8-.4,1.6-.8,2.2-1.3,2.4-4.8,2.4-7.3,1.3-6.5-2.6-10.4-10.4-8.8-17.2.4-1.5,1-3,1-4.5,0-1.5-.7-3.3-2.1-3.8-.7-.3-1.6-.2-2.3-.3-2.6-.4-4.4-3.2-4.5-5.8,0-1.6.2-3.2.8-4.7,10.9-2.7,22.3-4.1,34.1-4.1s10.9.3,16.2.9c.9,3.4,1.9,6.9,2,10.4,0,3.7-.8,7.6-3.2,10.4"/>
        <path class="cls-1" d="M146,215.7c-1.1,2.3-2.6,4.4-3.5,6.8-1.4,3.5-1.6,7.5-3.7,10.6-2.3,3.3-6.2,4.9-8.9,7.8-4,4.4-4.5,10.8-7.5,15.9-2.8,4.8-7.7,8.1-10.5,12.9-3.8,6.6-3,14.7-1.4,22.4-4.4-1.6-8.6-3.5-12.8-5.6-4.5-13.5-8.3-25.7-7.5-40.6.2-3.8.5-7.8-1.1-11.2-3.4-7.1-13.4-8.2-18.4-14.3-4-4.8-4.1-11.7-3-17.8.8-4.5,2.1-9,2.5-13.5.2-1.8-.9-3.6-2.7-4.1-1.8-.6-3.5-1.5-5.1-2.5-2.7-1.8-5-4.1-7.5-6.3-2-1.8-4.2-3.5-6.8-4.3-2.1-.7-4.4-.7-6.6-1-5.9-.9-11.2-4.1-15.4-8.4-2.7-2.8-4.9-5.9-6.8-9.3,2.7-56.2,38.4-103.7,88-123.8,3,1.4,5.6,3.6,7.1,6.4,1.9,3.6,1.8,8.3-.8,11.5-2.6,3.1-7.7,4.1-10.9,1.5-.9-.7-1.7-1.7-2.8-1.8-1.9-.3-3.1,1.8-4.2,3.4-4.2,6.1-12.8,7.3-18.6,11.9-2.8,2.2-5,5.7-4.4,9.2.4,2.6,2.2,4.6,4,6.6,2,2.2,4.6,4.6,7.6,4.3,2-.3,3.7-1.8,4.7-3.6,1-1.8,1.5-3.8,2.1-5.7,1.3-4.1,3.3-8.1,6.5-10.8,3.3-2.8,7.9-4.1,11.9-2.7,3.8,1.4,6.4,4.9,8.2,8.5,1.8,3.6,3,7.5,5.2,10.9,1.5,2.3,3.6,4.6,3.4,7.4-.2,2.5-2.2,4.5-4.6,5.5-2.3,1-4.9,1.2-7.3,1.7-1.9.4-4.2.9-5.2,2.6-.8,1.5-.3,2.7.6,3.8,1.3,1.5.8,3.8-1,4.6-7.4,3.1-14.3,7.2-19.4,13.3-3.9,4.6-6.8,10.3-12.1,13.1-3.2,1.7-7.5,2.7-8.2,6.2-.3,1.6.3,3.2.5,4.8.3,1.8-.2,3.9-2.1,4.4-.8.2-1.7,0-2.4-.5-1.5-1-2.2-2.8-3.2-4.2-3.6-5.2-11.8-6.1-16.9-2.3-3.6,2.6-5.4,7.6-5.7,12.5-.2,3.6,2.9,6.5,6.5,6,0,0,0,0,0,0,2.6-.4,5.2-1.2,7.8-.8,2.6.4,5.2,2.6,4.9,5.2-.2,1.3-1.1,2.6-.8,3.9.4,1.7,2.5,2.2,3.8,3.4,1.2,1.1,1.7,2.9,2.3,4.4.6,1.6,1.7,3.2,3.4,3.5,1.2.2,2.3-.3,3.4-.8,6.4-2.7,13.6-2.9,20.4-1.9,6.8,1.1,17.2,7,23,10.5,2.9,1.7,4.7,4.6,6.2,7.8,1.2,2.7,3.6,4.7,6.5,5.5,3.3.9,6.7,1.9,10,2.8,4.2,1.2,8.9,2.9,10.3,7,.8,2.4,0,5.1-1,7.4"/>
        <path class="cls-1" d="M301,153.2c-1.8,0-3.6-.1-5.4-.7-2.9-.9-5.6-3.3-6-6.3-.1-1.2.2-2.6,1.3-3,.5-.2,1.1-.2,1.6-.1,2.6.2,5.1.4,7.7.6-5.3-45.3-32-84-69.8-105.8-3.6.9-6.9,2.8-9.7,5.2-4,3.5-7,8.1-9.4,12.9-1.9,3.9-3.3,8.9-.6,12.3,2.4,3,7,3.1,10.9,3,3-.1,6.7-.7,7.6-3.6.8-2.3-.7-5.2,1-7,.9-.9,2.3-1.1,3.4-.5,1.8.8,2.6,2.8,2.8,4.7.4,4.1-2,8.2-5.3,10.6-3.3,2.5-7.5,3.5-11.7,3.7-3.4.2-7.3,0-9.8,2.3-2.3,2.1-2.9,5.5-4.6,8.1-1.6,2.3-4.1,3.8-5.4,6.3-1.3,2.4-1.1,5.2-.4,7.9.8,2.9-1.6,5.6-4.6,5.3-2.4-.3-4.8-.4-6.2,1.8-.7,1.1-.9,2.4-.8,3.6.3,2.6.2,5.6,2,7.8.6.7,1.3,1.3,2.2,1.5,2.4.7,4.2-1,5.7-2.6,2.6-2.7,5.1-5.5,7.7-8.2,2.2-2.3,4.8-4.5,8-4.7,3.1-.3,5.3,1.2,6.7,2.8,1,1.2,3.4,4.2,5,6.7.7,1.1,2.1,1.5,3.3,1.1h0c1.6-.5,2.5-2.3,1.8-3.9-.6-1.4-1.6-3.4-2.5-5.1-.9-1.7-.4-3.8,1.2-4.9,0,0,0,0,0,0,1.7-1.2,4-.8,5.2.8,2.6,3.6,4.5,7.7,5.5,12,.5,2.1,1.4,4.7,3.6,4.6,2.3-.2,3.3-3.9,5.6-3.7,1.8.2,2.3,2.5,3.4,4,2.6,3.5,9,1.9,11.4,5.5,2,2.9-.6,7.1-4,8.2-3.4,1.1-7,0-10.4-.8-3.4-.8-7.3-1.4-10.3.4-1.6.9-2.8,2.4-4.6,2.8-2.4.5-4.8-1.2-6.2-3.2-1.4-2-2.4-4.4-4.3-6-3.3-2.9-8.3-2.7-12.8-2.2-5.3.5-10.6,1.1-15.9,1.6-2,.2-4.1.5-5.5,1.9-1.1,1.1-1.6,2.8-2,4.4-2.8,9-9.5,16.6-11.6,25.8-1.3,5.5-.8,11.5,1.6,16.6,2.4,5.1,6.8,9.3,12.2,11.2,7.1,2.5,14.8.8,22.4.4,2.6-.1,5,1.6,5.6,4.1,1.4,5.2,4.3,10.3,5.1,15.7,1.3,8.6-2.9,17.1-3.4,25.8-.3,6.1,1.2,12.2,3.1,18.1,1.5,4.4,3.4,9.2,7.6,11.3,4,2.1,9.2,1.1,13-1.4,3.8-2.5,6.6-6.3,9.3-9.9,4.3-5.8,8.6-11.7,12.9-17.5,3.2-4.3,6.4-8.8,7.1-14.1.5-3.8-.3-7.7,0-11.5.7-8,6.5-14.6,12.1-20.4,1.9-2,4-4.6,3.1-7.3-.9-2.7-4.3-3.5-7-4.5-8.3-3.3-12.4-12.4-15.7-20.7-.9-2.3-1.6-5.5.4-7,1.7-1.2,4.1-.3,5.7,1.1,3.9,3.3,5.4,8.5,7.7,13,2.3,4.5,6.6,9,11.6,8.4,3.7-.4,7.2-3.5,10.7-3.8.2-2.7.2-5.4.2-8.1s0-4.7-.2-7M271.5,108.9s0,0,0,0c-1.1.6-2.3.9-3.6,1-4.4.4-8.8-.4-13.2-1.1-.8-.1-1.7-.3-2.4-.7-.7-.4-1.3-1.2-1.2-2.1,0-.8.7-1.4,1.3-1.9,3.2-2.7,7.4-4.1,11.5-3.9,2.7.1,5.3,1,7.6,2.3,2.4,1.4,2.4,5,0,6.4"/>
        <path class="cls-1" d="M204.2,77.8c-.5,2-2,3.7-3.5,5.1-1.9,1.8-4,3.4-6.3,4.5-1.3.6-2.8,1.1-4,.4-1.1-.7-1.5-2.1-1.3-3.4.2-1.3,1-2.4,1.7-3.4.8-1.1,1.6-2.1,1.9-3.4.9-3.2-1.2-6.6-.4-9.8.4-1.7,1.7-3.2,3.4-3.8,0,0,.2,0,.3-.1,2.3-.8,4.8.5,5.7,2.7.7,1.7,1.3,3.4,1.8,5.2.6,2,1.2,4.1.8,6.1"/>
        <path class="cls-1" d="M188.9,78.8c-.3.7-.7,1.4-1.3,1.8-1,.6-2.3.3-3.1-.4-.9-.7-1.5-1.7-2-2.7-.5-.8-.9-1.8-.8-2.7.1-.8.7-1.4,1.3-1.9.8-.8,1.8-1.5,2.9-1.9.4-.1.8-.2,1.2-.3,1.2,0,2.4.7,2.7,1.9,0,0,0,0,0,0,.5,2,0,4.2-.9,6.1"/>
      </g>
    </g>
  </g>
</svg>